<?xml version="1.0" encoding="UTF-8"?>
<!DOCTYPE svg PUBLIC "-//W3C//DTD SVG 1.1//EN" "http://www.w3.org/Graphics/SVG/1.1/DTD/svg11.dtd">
<svg version="1.1" xmlns="http://www.w3.org/2000/svg" xmlns:xlink="http://www.w3.org/1999/xlink" x="0" y="0" width="500" height="150.271" viewBox="0, 0, 500, 150.271">
  <defs>
    <radialGradient id="Gradient_1" gradientUnits="userSpaceOnUse" cx="249.481" cy="-126.445" r="251.967" gradientTransform="matrix(1, 0, 0, -1, 0, 0)">
      <stop offset="0" stop-color="#006838" stop-opacity="0.5"/>
      <stop offset="1" stop-color="#000000" stop-opacity="0"/>
    </radialGradient>
    <clipPath id="Clip_1">
      <path d="M249.999,150.271 C388.071,150.271 500,138.323 500,123.583 C499.17,118.592 490.879,116.289 486.864,115.022 C480.336,112.962 473.601,111.546 466.878,110.297 C449.274,107.028 431.425,105.049 413.606,103.401 C359.262,98.376 304.585,96.967 250.033,96.893 L249.966,96.893 C201.706,96.983 153.411,98.163 105.278,101.817 C85.509,103.318 65.735,105.188 46.124,108.132 C35.052,109.794 23.836,111.645 13.135,115.022 C9.398,116.202 0.57,118.77 -0,123.582 L-0,123.583 C0.83,128.573 9.122,130.876 13.135,132.143 C19.664,134.203 26.399,135.619 33.122,136.867 C50.726,140.136 68.575,142.116 86.393,143.763 C140.748,148.789 195.437,150.198 249.999,150.271 z"/>
    </clipPath>
    <radialGradient id="Gradient_2" gradientUnits="userSpaceOnUse" cx="253.491" cy="45.203" r="176.51">
      <stop offset="0" stop-color="#8DC63F"/>
      <stop offset="1" stop-color="#009444" stop-opacity="0"/>
    </radialGradient>
  </defs>
  <g id="Layer_1">
    <g clip-path="url(#Clip_1)">
      <path d="M249.999,150.271 C388.071,150.271 500,138.323 500,123.583 C500,108.842 388.071,96.893 249.999,96.893 C201.729,96.983 153.422,98.162 105.278,101.817 C85.509,103.318 65.735,105.188 46.124,108.132 C35.052,109.794 23.836,111.645 13.135,115.022 C9.399,116.202 0.57,118.77 0,123.581 L0,123.584 C0.83,128.573 9.122,130.876 13.135,132.143 C19.664,134.203 26.399,135.619 33.122,136.867 C50.726,140.136 68.575,142.116 86.393,143.763 C140.748,148.789 195.437,150.198 249.999,150.271 z" fill="url(#Gradient_1)"/>
    </g>
    <path d="M392.889,0 L251.588,0 L251.34,0 L110.04,0 L9.009,118.785 L251.34,118.785 L251.588,118.785 L493.918,118.785 z" fill="#439042"/>
    <path d="M365.801,0 L251.562,0 L251.366,0 L137.127,0 L59.746,118.785 L251.366,118.785 L251.562,118.785 L443.181,118.785 z" fill="#4F9944"/>
    <path d="M335.542,0 L251.536,0 L251.392,0 L167.386,0 L110.483,118.785 L251.392,118.785 L251.536,118.785 L392.444,118.785 z" fill="#439042"/>
    <path d="M301.028,0 L251.506,0 L251.421,0 L201.9,0 L168.355,118.785 L251.421,118.785 L251.506,118.785 L334.573,118.785 z" fill="#4F9944"/>
    <path d="M267.46,0 L251.478,0 L251.45,0 L235.468,0 L224.642,118.785 L251.45,118.785 L251.478,118.785 L278.285,118.785 z" fill="#439042"/>
    <path d="M392.888,-0 L251.588,-0 L251.34,-0 L110.039,-0 L9.009,118.785 L251.34,118.785 L251.588,118.785 L493.919,118.785 z" fill="url(#Gradient_2)"/>
    <path d="M251.574,111.319 L35.964,111.319 L119.772,5.088 L251.574,5.088 L251.574,111.319 z" fill-opacity="0" stroke="#FFFFFF" stroke-width="2.347"/>
    <path d="M251.354,111.319 L466.964,111.319 L383.155,5.088 L251.354,5.088 L251.354,111.319 z" fill-opacity="0" stroke="#FFFFFF" stroke-width="2.347"/>
    <path d="M457.282,111.276 C457.282,111.276 454.375,105.859 460.718,103.479" fill-opacity="0" stroke="#FFFFFF" stroke-width="2.347"/>
    <path d="M377.429,5.04 C377.429,5.04 380.071,9.708 386.149,9.003" fill-opacity="0" stroke="#FFFFFF" stroke-width="2.347"/>
    <path d="M45.594,111.276 C45.594,111.276 48.501,105.859 42.159,103.479" fill-opacity="0" stroke="#FFFFFF" stroke-width="2.347"/>
    <path d="M125.448,5.04 C125.448,5.04 122.805,9.708 116.727,9.003" fill-opacity="0" stroke="#FFFFFF" stroke-width="2.347"/>
    <path d="M101.708,28.559 L140.82,28.559 L117.036,69.257 L69.731,69.257" fill-opacity="0" stroke="#FFFFFF" stroke-width="2.347"/>
    <path d="M133.793,40.861 C136.291,42.582 137.5,45.134 136.773,47.983 C135.648,52.39 130.252,56.089 123.993,57.095" fill-opacity="0" stroke="#FFFFFF" stroke-width="2.347" stroke-linecap="round" stroke-linejoin="round"/>
    <path d="M402.182,28.559 L363.07,28.559 L386.854,69.257 L434.159,69.257" fill-opacity="0" stroke="#FFFFFF" stroke-width="2.347"/>
    <path d="M370.097,40.861 C367.599,42.582 366.39,45.134 367.117,47.983 C368.242,52.39 373.638,56.089 379.897,57.095" fill-opacity="0" stroke="#FFFFFF" stroke-width="2.347" stroke-linecap="round" stroke-linejoin="round"/>
    <path d="M274.966,54.333 C270.857,62.934 256.77,67.774 243.499,65.143 C230.228,62.511 222.801,53.405 226.909,44.805 C231.017,36.203 245.105,31.363 258.376,33.995 C271.646,36.626 279.073,45.732 274.966,54.333 z" fill-opacity="0" stroke="#FFFFFF" stroke-width="2.347"/>
  </g>
</svg>
