<?xml version="1.0" encoding="UTF-8"?>
<!DOCTYPE svg PUBLIC "-//W3C//DTD SVG 1.1//EN" "http://www.w3.org/Graphics/SVG/1.1/DTD/svg11.dtd">
<svg version="1.1" xmlns="http://www.w3.org/2000/svg" xmlns:xlink="http://www.w3.org/1999/xlink" x="0" y="0" width="19.233" height="23.266" viewBox="0, 0, 192.329, 232.663">
  <g id="Capa_1" transform="translate(-631.671, 107.536)">
    <g>
      <g>
        <path d="M736.865,-88.036 L742.546,-80.123 L743.019,-79.464 L744.338,-80.411 L744.329,-80.424 C749.23,-83.025 756.927,-83.072 759.173,-77.008 L759.317,-76.525 L759.317,-68.547 C759.315,-68.549 759.313,-68.55 759.311,-68.551 C759.193,-68.632 759.075,-68.713 758.956,-68.794 C758.345,-69.209 757.757,-69.586 757.156,-69.944 C755.913,-70.685 754.726,-71.274 753.594,-71.677 C751.681,-72.249 752.802,-71.999 750.194,-72.249 C748.777,-71.81 747.207,-71.29 746.622,-69.768 L746.367,-69.473 C741.531,-56.337 743.666,-47.086 751.295,-43.308 C752.191,-42.967 753.04,-42.467 753.98,-42.287 C762.466,-40.657 769.469,-42.779 776.586,-47.475 L776.588,-47.476 C788.061,-53.154 799.38,-48.973 804.777,-37.366 L805.194,8.937 C800.888,5.44 798.311,-0.062 796.76,-5.27 L796.629,-5.47 C796.527,-5.717 796.611,-5.662 796.463,-5.723 C796.376,-5.856 796.446,-5.784 796.185,-5.838 L795.963,-5.93 L795.889,-5.9 L795.811,-5.916 L795.61,-5.784 C795.364,-5.682 795.419,-5.766 795.358,-5.619 C795.225,-5.531 795.297,-5.601 795.243,-5.339 L795.151,-5.118 L795.151,2.715 C792.821,1.463 790.847,-0.097 789.848,-2.659 C789.298,-3.934 788.953,-5.307 788.776,-6.7 C788.658,-7.633 788.629,-8.44 788.649,-9.045 C788.653,-9.14 788.653,-9.14 788.654,-9.151 C788.411,-9.864 788.639,-9.648 788.098,-9.914 C787.907,-10.375 788.076,-10.146 787.412,-10.421 C786.964,-10.421 786.601,-10.058 786.6,-9.609 L786.6,-1.83 C783.004,-3.43 780.634,-6.695 780.427,-10.68 L780.427,-10.87 L780.327,-11.111 C780.257,-11.38 780.336,-11.318 780.211,-11.391 C780.156,-11.525 780.207,-11.437 779.949,-11.544 L779.725,-11.675 L779.669,-11.66 L779.615,-11.682 L779.376,-11.583 C779.106,-11.512 779.168,-11.592 779.095,-11.467 C778.961,-11.412 779.049,-11.462 778.942,-11.205 L778.811,-10.98 L778.811,-10.89 L778.803,-10.87 L778.803,-7.264 C776.671,-8.717 777.315,-8.116 775.935,-9.501 C775.495,-9.985 775.104,-10.489 774.8,-10.946 C774.681,-11.125 774.583,-11.286 774.517,-11.407 L774.517,-11.406 L775.423,-23.26 L775.34,-23.26 L769.472,-10.828 L771.426,-9.011 L772.008,-10.139 C775.343,-2.381 805.5,14.421 805.5,14.422 L805.5,39.167 C799.396,37.606 795.235,25.529 793.823,16.89 L793.174,33.179 C785.858,28.167 785.593,23.194 784.654,16.89 L784.654,27.879 C777.117,23.733 779.118,13.595 779.118,13.595 L776.331,20.977 C770.621,18.862 770.948,6.744 770.948,6.744 L770.261,14.925 C763.062,12.741 763.055,7.212 763.055,7.212 L763.614,6.129 L762.312,6.818 L761.329,6.424 L760.012,9.214 L761.989,12.312 L762.093,12.13 C770.814,28.346 804.719,42.881 804.719,42.881 L804.719,72.415 C798.346,70.026 794.54,55.005 794.164,50.391 L794.164,65.514 C787.942,63.131 787.143,52.541 787.432,46.826 L785.842,62.266 C778.352,59.928 779.448,44.403 779.448,44.404 L776.91,56.176 C772.051,56.302 772.749,34.559 772.749,34.559 L771.937,50.391 C763.541,48.811 766.355,29.992 766.355,29.992 L763.514,42.881 C759.648,40.776 760.164,26.034 760.164,26.034 L754.481,29.281 L754.237,29.144 L754.234,29.15 L754.162,29.102 L752.857,28.368 L752.911,28.273 L751.468,27.317 L729.888,73.036 C731.013,74.544 732.281,75.971 733.137,77.66 C732.15,75.461 731.651,73.106 731.248,70.745 L732.869,70.561 C746.106,70.661 755.006,79.583 757.159,92.19 C748.188,93.282 738.435,88.335 734.334,80.15 L734.545,80.641 C738.194,89.542 735.9,100.199 728.776,106.628 C726.588,103.764 725.678,102.849 724.099,98.997 C720.628,90.53 722.475,79.682 729.379,73.453 L705.703,26.337 L703.728,28.216 L703.814,28.368 L703.21,28.708 L702.155,29.711 L701.88,29.104 L696.507,26.034 C696.507,26.034 697.024,40.776 693.158,42.881 L690.316,29.992 C690.316,29.992 693.13,48.811 684.734,50.391 L683.922,34.559 C683.922,34.559 684.62,56.302 679.761,56.176 L677.224,44.404 C677.224,44.403 678.32,59.928 670.83,62.266 L669.239,46.826 C669.371,52.707 668.961,62.99 662.508,65.514 L662.508,50.391 C662.132,55.005 658.326,70.026 651.952,72.415 L651.952,42.881 C666.999,35.63 685.906,26.897 694.576,12.133 L696.512,8.047 L695.558,6.149 L693.488,8.117 C692.808,11.739 689.65,13.784 686.41,14.925 L685.724,6.744 C685.724,6.744 686.05,18.862 680.34,20.977 L677.553,13.595 C677.554,13.595 679.554,23.733 672.018,27.879 L672.018,16.89 C671.078,23.194 670.814,28.167 663.497,33.179 L662.848,16.89 C661.437,25.529 657.276,37.606 651.171,39.167 L651.171,14.422 C651.171,14.421 681.329,-2.381 684.663,-10.139 L684.732,-10.007 L686.046,-12.781 L681.321,-22.183 L682.56,-12.764 C682.398,-12.485 682.488,-12.634 682.286,-12.319 C681.983,-11.862 681.592,-11.358 681.152,-10.874 C679.687,-9.421 680.596,-10.213 678.303,-8.647 L678.283,-12.248 L678.249,-12.329 L678.25,-12.353 L678.212,-12.418 C678.03,-12.849 678.177,-12.766 677.956,-12.856 C677.905,-12.943 677.949,-12.887 677.757,-12.937 L677.467,-13.055 L677.405,-13.029 L677.335,-13.048 L677.04,-12.876 C676.884,-12.81 676.914,-12.863 676.881,-12.783 C676.669,-12.659 676.807,-12.766 676.684,-12.299 L676.659,-12.239 L676.66,-12.207 L676.641,-12.134 C676.57,-8.441 674.044,-4.495 670.486,-3.204 L670.486,-10.982 L670.474,-11.011 L670.473,-11.033 L670.422,-11.138 C670.243,-11.57 670.388,-11.499 670.209,-11.573 C670.168,-11.656 670.206,-11.589 669.995,-11.662 L669.674,-11.794 L669.644,-11.781 L669.611,-11.793 L669.29,-11.635 C669.094,-11.554 669.126,-11.62 669.093,-11.538 C668.917,-11.452 669.058,-11.533 668.906,-11.087 L668.862,-10.982 L668.862,-10.96 L668.852,-10.931 C668.853,-10.919 668.853,-10.919 668.857,-10.82 C668.878,-10.195 668.849,-9.361 668.729,-8.397 C668.549,-6.957 668.2,-5.539 667.643,-4.221 C666.333,-1.796 664.741,0.606 661.936,1.482 L661.936,-6.1 L661.887,-6.217 L661.921,-6.336 C662.007,-6.776 661.719,-7.202 661.279,-7.288 C660.839,-7.374 660.413,-7.087 660.326,-6.647 C658.854,-1.449 656.059,3.85 651.894,7.375 L652.31,-38.859 C653.641,-44.858 659.081,-47.089 664.755,-47.681 C669.934,-48.024 675.782,-47.916 680.176,-44.781 C686.901,-37.915 698.086,-36.251 706.71,-40.265 C719.235,-47.554 713.616,-60.444 706.933,-69.901 L736.865,-88.036 z" fill="#FFFFFF"/>
        <path d="M736.865,-88.036 L742.546,-80.123 L743.019,-79.464 L744.338,-80.411 L744.329,-80.424 C749.23,-83.025 756.927,-83.072 759.173,-77.008 L759.317,-76.525 L759.317,-68.547 C759.315,-68.549 759.313,-68.55 759.311,-68.551 C759.193,-68.632 759.075,-68.713 758.956,-68.794 C758.345,-69.209 757.757,-69.586 757.156,-69.944 C755.913,-70.685 754.726,-71.274 753.594,-71.677 C751.681,-72.249 752.802,-71.999 750.194,-72.249 C748.777,-71.81 747.207,-71.29 746.622,-69.768 L746.367,-69.473 C741.531,-56.337 743.666,-47.086 751.295,-43.308 C752.191,-42.967 753.04,-42.467 753.98,-42.287 C762.466,-40.657 769.469,-42.779 776.586,-47.475 L776.588,-47.476 C788.061,-53.154 799.38,-48.973 804.777,-37.366 L805.194,8.937 C800.888,5.44 798.311,-0.062 796.76,-5.27 L796.629,-5.47 C796.527,-5.717 796.611,-5.662 796.463,-5.723 C796.376,-5.856 796.446,-5.784 796.185,-5.838 L795.963,-5.93 L795.889,-5.9 L795.811,-5.916 L795.61,-5.784 C795.364,-5.682 795.419,-5.766 795.358,-5.619 C795.225,-5.531 795.297,-5.601 795.243,-5.339 L795.151,-5.118 L795.151,2.715 C792.821,1.463 790.847,-0.097 789.848,-2.659 C789.298,-3.934 788.953,-5.307 788.776,-6.7 C788.658,-7.633 788.629,-8.44 788.649,-9.045 C788.653,-9.14 788.653,-9.14 788.654,-9.151 C788.411,-9.864 788.639,-9.648 788.098,-9.914 C787.907,-10.375 788.076,-10.146 787.412,-10.421 C786.964,-10.421 786.601,-10.058 786.6,-9.609 L786.6,-1.83 C783.004,-3.43 780.634,-6.695 780.427,-10.68 L780.427,-10.87 L780.327,-11.111 C780.257,-11.38 780.336,-11.318 780.211,-11.391 C780.156,-11.525 780.207,-11.437 779.949,-11.544 L779.725,-11.675 L779.669,-11.66 L779.615,-11.682 L779.376,-11.583 C779.106,-11.512 779.168,-11.592 779.095,-11.467 C778.961,-11.412 779.049,-11.462 778.942,-11.205 L778.811,-10.98 L778.811,-10.89 L778.803,-10.87 L778.803,-7.264 C776.671,-8.717 777.315,-8.116 775.935,-9.501 C775.495,-9.985 775.104,-10.489 774.8,-10.946 C774.681,-11.125 774.583,-11.286 774.517,-11.407 L774.517,-11.406 L775.423,-23.26 L775.34,-23.26 L769.472,-10.828 L771.426,-9.011 L772.008,-10.139 C775.343,-2.381 805.5,14.421 805.5,14.422 L805.5,39.167 C799.396,37.606 795.235,25.529 793.823,16.89 L793.174,33.179 C785.858,28.167 785.593,23.194 784.654,16.89 L784.654,27.879 C777.117,23.733 779.118,13.595 779.118,13.595 L776.331,20.977 C770.621,18.862 770.948,6.744 770.948,6.744 L770.261,14.925 C763.062,12.741 763.055,7.212 763.055,7.212 L763.614,6.129 L762.312,6.818 L761.329,6.424 L760.012,9.214 L761.989,12.312 L762.093,12.13 C770.814,28.346 804.719,42.881 804.719,42.881 L804.719,72.415 C798.346,70.026 794.54,55.005 794.164,50.391 L794.164,65.514 C787.942,63.131 787.143,52.541 787.432,46.826 L785.842,62.266 C778.352,59.928 779.448,44.403 779.448,44.404 L776.91,56.176 C772.051,56.302 772.749,34.559 772.749,34.559 L771.937,50.391 C763.541,48.811 766.355,29.992 766.355,29.992 L763.514,42.881 C759.648,40.776 760.164,26.034 760.164,26.034 L754.481,29.281 L754.237,29.144 L754.234,29.15 L754.162,29.102 L752.857,28.368 L752.911,28.273 L751.468,27.317 L729.888,73.036 C731.013,74.544 732.281,75.971 733.137,77.66 C732.15,75.461 731.651,73.106 731.248,70.745 L732.869,70.561 C746.106,70.661 755.006,79.583 757.159,92.19 C748.188,93.282 738.435,88.335 734.334,80.15 L734.545,80.641 C738.194,89.542 735.9,100.199 728.776,106.628 C726.588,103.764 725.678,102.849 724.099,98.997 C720.628,90.53 722.475,79.682 729.379,73.453 L705.703,26.337 L703.728,28.216 L703.814,28.368 L703.21,28.708 L702.155,29.711 L701.88,29.104 L696.507,26.034 C696.507,26.034 697.024,40.776 693.158,42.881 L690.316,29.992 C690.316,29.992 693.13,48.811 684.734,50.391 L683.922,34.559 C683.922,34.559 684.62,56.302 679.761,56.176 L677.224,44.404 C677.224,44.403 678.32,59.928 670.83,62.266 L669.239,46.826 C669.371,52.707 668.961,62.99 662.508,65.514 L662.508,50.391 C662.132,55.005 658.326,70.026 651.952,72.415 L651.952,42.881 C666.999,35.63 685.906,26.897 694.576,12.133 L696.512,8.047 L695.558,6.149 L693.488,8.117 C692.808,11.739 689.65,13.784 686.41,14.925 L685.724,6.744 C685.724,6.744 686.05,18.862 680.34,20.977 L677.553,13.595 C677.554,13.595 679.554,23.733 672.018,27.879 L672.018,16.89 C671.078,23.194 670.814,28.167 663.497,33.179 L662.848,16.89 C661.437,25.529 657.276,37.606 651.171,39.167 L651.171,14.422 C651.171,14.421 681.329,-2.381 684.663,-10.139 L684.732,-10.007 L686.046,-12.781 L681.321,-22.183 L682.56,-12.764 C682.398,-12.485 682.488,-12.634 682.286,-12.319 C681.983,-11.862 681.592,-11.358 681.152,-10.874 C679.687,-9.421 680.596,-10.213 678.303,-8.647 L678.283,-12.248 L678.249,-12.329 L678.25,-12.353 L678.212,-12.418 C678.03,-12.849 678.177,-12.766 677.956,-12.856 C677.905,-12.943 677.949,-12.887 677.757,-12.937 L677.467,-13.055 L677.405,-13.029 L677.335,-13.048 L677.04,-12.876 C676.884,-12.81 676.914,-12.863 676.881,-12.783 C676.669,-12.659 676.807,-12.766 676.684,-12.299 L676.659,-12.239 L676.66,-12.207 L676.641,-12.134 C676.57,-8.441 674.044,-4.495 670.486,-3.204 L670.486,-10.982 L670.474,-11.011 L670.473,-11.033 L670.422,-11.138 C670.243,-11.57 670.388,-11.499 670.209,-11.573 C670.168,-11.656 670.206,-11.589 669.995,-11.662 L669.674,-11.794 L669.644,-11.781 L669.611,-11.793 L669.29,-11.635 C669.094,-11.554 669.126,-11.62 669.093,-11.538 C668.917,-11.452 669.058,-11.533 668.906,-11.087 L668.862,-10.982 L668.862,-10.96 L668.852,-10.931 C668.853,-10.919 668.853,-10.919 668.857,-10.82 C668.878,-10.195 668.849,-9.361 668.729,-8.397 C668.549,-6.957 668.2,-5.539 667.643,-4.221 C666.333,-1.796 664.741,0.606 661.936,1.482 L661.936,-6.1 L661.887,-6.217 L661.921,-6.336 C662.007,-6.776 661.719,-7.202 661.279,-7.288 C660.839,-7.374 660.413,-7.087 660.326,-6.647 C658.854,-1.449 656.059,3.85 651.894,7.375 L652.31,-38.859 C653.641,-44.858 659.081,-47.089 664.755,-47.681 C669.934,-48.024 675.782,-47.916 680.176,-44.781 C686.901,-37.915 698.086,-36.251 706.71,-40.265 C719.235,-47.554 713.616,-60.444 706.933,-69.901 L736.865,-88.036 z" fill-opacity="0" stroke="#FFFFFF" stroke-width="18" stroke-linecap="round" stroke-miterlimit="2"/>
      </g>
      <g>
        <path d="M726.297,70.477 L727.913,70.702 C724.95,88.02 709.66,93.102 701.459,91.474 C703.847,78.443 712.977,70.674 726.297,70.477 z" fill="#FFFFFF"/>
        <path d="M726.297,70.477 L727.913,70.702 C724.95,88.02 709.66,93.102 701.459,91.474 C703.847,78.443 712.977,70.674 726.297,70.477 z" fill-opacity="0" stroke="#FFFFFF" stroke-width="18" stroke-linecap="round" stroke-miterlimit="2"/>
      </g>
      <g>
        <path d="M746.252,42.544 C756.995,43.56 762.662,50.84 760.773,61.645 C761.121,61.677 760.958,61.668 761.262,61.679 C761.262,61.678 761.155,61.673 761.287,61.679 C775.234,62.226 777.596,74.734 774.681,79.994 C767.593,81.977 758.56,75.685 760.628,62.391 C760.648,62.259 760.634,62.366 760.634,62.366 C760.722,61.993 760.67,62.232 760.773,61.645 C749.191,60.596 744.036,53.694 745.553,42.544 L746.252,42.544 z" fill="#FFFFFF"/>
        <path d="M746.252,42.544 C756.995,43.56 762.662,50.84 760.773,61.645 C761.121,61.677 760.958,61.668 761.262,61.679 C761.262,61.678 761.155,61.673 761.287,61.679 C775.234,62.226 777.596,74.734 774.681,79.994 C767.593,81.977 758.56,75.685 760.628,62.391 C760.648,62.259 760.634,62.366 760.634,62.366 C760.722,61.993 760.67,62.232 760.773,61.645 C749.191,60.596 744.036,53.694 745.553,42.544 L746.252,42.544 z" fill-opacity="0" stroke="#FFFFFF" stroke-width="18" stroke-linecap="round" stroke-miterlimit="2"/>
      </g>
      <g>
        <path d="M711.568,42.544 C713.417,53.538 707.405,60.61 696.349,61.645 C696.451,62.232 696.399,61.993 696.487,62.366 C696.487,62.366 696.473,62.259 696.494,62.391 C698.561,75.685 689.528,81.977 682.44,79.994 C679.525,74.734 681.887,62.226 695.834,61.679 C695.967,61.673 695.859,61.678 695.859,61.679 C696.163,61.668 696,61.677 696.349,61.645 C694.371,50.339 700.047,43.916 710.869,42.544 L711.568,42.544 z" fill="#FFFFFF"/>
        <path d="M711.568,42.544 C713.417,53.538 707.405,60.61 696.349,61.645 C696.451,62.232 696.399,61.993 696.487,62.366 C696.487,62.366 696.473,62.259 696.494,62.391 C698.561,75.685 689.528,81.977 682.44,79.994 C679.525,74.734 681.887,62.226 695.834,61.679 C695.967,61.673 695.859,61.678 695.859,61.679 C696.163,61.668 696,61.677 696.349,61.645 C694.371,50.339 700.047,43.916 710.869,42.544 L711.568,42.544 z" fill-opacity="0" stroke="#FFFFFF" stroke-width="18" stroke-linecap="round" stroke-miterlimit="2"/>
      </g>
    </g>
    <g>
      <path d="M726.969,64.313 L680.461,-27.329 L774.992,-27.329 L726.969,64.313" fill="#FFFFFF"/>
      <g>
        <g>
          <path d="M711.343,39.876 C714.507,58.744 695.634,59.01 695.634,59.01 C695.634,59.01 695.742,59.005 695.609,59.01 C681.662,59.558 679.3,72.066 682.215,77.326 C689.303,79.309 698.336,73.017 696.269,59.723 C696.248,59.591 696.262,59.698 696.262,59.698 C696.262,59.698 691.6,41.703 710.644,39.876" fill-opacity="0" stroke="#C3C2C2" stroke-width="2" stroke-linecap="round" stroke-linejoin="round"/>
          <path d="M745.328,39.876 C742.165,58.744 761.037,59.01 761.037,59.01 C761.037,59.01 760.93,59.005 761.062,59.01 C775.009,59.558 777.371,72.066 774.456,77.326 C767.368,79.309 758.335,73.017 760.403,59.723 C760.423,59.591 760.409,59.698 760.409,59.698 C760.409,59.698 765.071,41.704 746.027,39.876" fill-opacity="0" stroke="#C3C2C2" stroke-width="2" stroke-linecap="round" stroke-linejoin="round"/>
        </g>
        <g>
          <path d="M694.079,8.961 C685.357,25.178 651.452,39.713 651.452,39.713 L651.452,69.247 C657.826,66.858 661.632,51.837 662.007,47.223 L662.007,62.346 C668.879,60.675 669.193,44.682 668.604,42.352 L670.33,59.098 C677.819,56.76 676.724,41.235 676.724,41.235 L679.261,53.008 C684.12,53.133 683.422,31.391 683.422,31.391 L684.234,47.223 C692.63,45.643 689.816,26.824 689.816,26.824 L692.658,39.713 C696.524,37.608 696.007,22.865 696.007,22.865 L701.69,26.113 L703.314,25.2 L694.079,8.961" fill="#C3C2C2"/>
          <path d="M761.593,8.961 C770.314,25.178 804.219,39.713 804.219,39.713 L804.219,69.247 C797.846,66.858 794.04,51.837 793.664,47.223 L793.664,62.346 C786.793,60.675 786.479,44.682 787.067,42.352 L785.342,59.098 C777.852,56.76 778.948,41.235 778.948,41.235 L776.41,53.008 C771.551,53.133 772.249,31.391 772.249,31.391 L771.437,47.223 C763.041,45.643 765.855,26.824 765.855,26.824 L763.014,39.713 C759.148,37.608 759.664,22.865 759.664,22.865 L753.981,26.113 L752.357,25.2 L761.593,8.961" fill="#C3C2C2"/>
        </g>
        <g>
          <g>
            <path d="M700.486,93.142 C703.449,75.824 718.74,70.742 726.94,72.37 C723.977,89.689 708.686,94.77 700.486,93.142" fill-opacity="0" stroke="#C3C2C2" stroke-width="2" stroke-linecap="round" stroke-linejoin="round"/>
            <path d="M756.185,93.858 C753.669,76.47 738.514,70.997 730.274,72.413 C732.791,89.802 747.946,95.275 756.185,93.858" fill-opacity="0" stroke="#C3C2C2" stroke-width="2" stroke-linecap="round" stroke-linejoin="round"/>
          </g>
          <path d="M727.802,109.296 C716.441,95.894 722.377,80.915 728.895,75.679 C740.257,89.081 734.321,104.061 727.802,109.296" fill-opacity="0" stroke="#C3C2C2" stroke-width="2" stroke-linecap="round" stroke-linejoin="round"/>
        </g>
        <path d="M736.365,-91.204 L706.433,-73.07 C713.116,-63.613 718.735,-50.722 706.21,-43.434 C697.586,-39.419 686.401,-41.084 679.676,-47.949 C675.282,-51.084 669.434,-51.192 664.255,-50.85 C658.581,-50.257 653.141,-48.026 651.81,-42.027 L651.394,4.207 C655.559,0.682 658.354,-4.618 659.827,-9.815 C659.913,-10.255 660.339,-10.542 660.779,-10.457 C661.219,-10.371 661.506,-9.944 661.421,-9.504 L661.387,-9.385 L661.435,-9.269 L661.435,-1.686 C664.241,-2.562 665.833,-4.964 667.143,-7.39 C667.7,-8.708 668.049,-10.126 668.229,-11.565 C668.349,-12.529 668.378,-13.363 668.357,-13.989 C668.353,-14.088 668.353,-14.088 668.352,-14.1 L668.362,-14.129 L668.362,-14.151 L668.406,-14.255 C668.558,-14.701 668.417,-14.621 668.593,-14.707 C668.626,-14.788 668.594,-14.722 668.79,-14.803 L669.111,-14.961 L669.144,-14.95 L669.174,-14.963 L669.495,-14.83 C669.706,-14.758 669.668,-14.825 669.708,-14.741 C669.888,-14.667 669.743,-14.738 669.921,-14.307 L669.973,-14.202 L669.974,-14.18 L669.986,-14.151 L669.986,-6.373 C673.544,-7.663 676.069,-11.609 676.14,-15.302 L676.16,-15.375 L676.159,-15.407 L676.184,-15.467 C676.307,-15.934 676.169,-15.827 676.381,-15.951 C676.414,-16.032 676.384,-15.978 676.54,-16.044 L676.835,-16.216 L676.905,-16.198 L676.967,-16.224 L677.257,-16.105 C677.449,-16.055 677.405,-16.112 677.456,-16.024 C677.677,-15.934 677.53,-16.018 677.712,-15.586 L677.749,-15.522 L677.749,-15.497 L677.783,-15.416 L677.803,-11.815 C680.095,-13.382 679.187,-12.589 680.652,-14.043 C681.092,-14.526 681.483,-15.03 681.786,-15.487 C681.988,-15.802 681.898,-15.653 682.059,-15.932 L680.561,-27.329 L680.461,-27.329 L680.461,-28.952 L775.051,-28.952 L775.051,-27.329 L774.992,-27.329 L774.017,-14.575 L774.018,-14.575 C774.083,-14.454 774.181,-14.293 774.3,-14.114 C774.604,-13.657 774.995,-13.153 775.435,-12.669 C776.815,-11.285 776.171,-11.885 778.303,-10.433 L778.303,-14.039 L778.311,-14.058 L778.311,-14.149 L778.442,-14.373 C778.549,-14.631 778.461,-14.58 778.595,-14.635 C778.668,-14.76 778.606,-14.68 778.876,-14.751 L779.115,-14.851 L779.169,-14.828 L779.225,-14.843 L779.449,-14.712 C779.707,-14.605 779.656,-14.693 779.712,-14.559 C779.836,-14.486 779.757,-14.548 779.828,-14.279 L779.927,-14.039 L779.927,-13.848 C780.134,-9.863 782.504,-6.598 786.1,-4.999 L786.1,-12.778 C786.1,-13.226 786.464,-13.589 786.912,-13.589 C787.576,-13.315 787.407,-13.543 787.598,-13.082 C788.139,-12.816 787.911,-13.033 788.154,-12.32 C788.153,-12.308 788.153,-12.308 788.149,-12.213 C788.129,-11.608 788.158,-10.801 788.276,-9.868 C788.453,-8.475 788.798,-7.103 789.348,-5.827 C790.347,-3.265 792.321,-1.705 794.651,-0.453 L794.651,-8.287 L794.743,-8.508 C794.797,-8.77 794.725,-8.7 794.858,-8.787 C794.919,-8.934 794.864,-8.851 795.11,-8.952 L795.311,-9.084 L795.39,-9.068 L795.463,-9.099 L795.685,-9.007 C795.946,-8.952 795.876,-9.025 795.963,-8.891 C796.111,-8.83 796.027,-8.885 796.129,-8.638 L796.26,-8.438 C797.811,-3.231 800.388,2.272 804.694,5.768 L804.277,-40.534 C798.88,-52.141 787.561,-56.323 776.088,-50.644 L776.086,-50.644 C768.969,-45.947 761.966,-43.826 753.481,-45.455 C752.54,-45.635 751.691,-46.136 750.796,-46.476 C743.166,-50.255 741.031,-59.505 745.867,-72.641 L746.123,-72.937 C746.707,-74.459 748.277,-74.978 749.694,-75.418 C752.302,-75.167 751.181,-75.417 753.094,-74.846 C754.226,-74.443 755.413,-73.853 756.656,-73.112 C757.257,-72.754 757.845,-72.377 758.456,-71.963 C758.575,-71.882 758.693,-71.801 758.812,-71.719 C758.813,-71.718 758.815,-71.717 758.817,-71.716 L758.817,-79.694 L758.673,-80.177 C756.427,-86.24 748.73,-86.194 743.829,-83.592 L743.838,-83.58 L742.519,-82.632 L742.046,-83.292 L736.365,-91.204 z" fill="#C3C2C2"/>
        <path d="M736.614,-83.503 C728.86,-26.101 768.312,-41.277 778.555,-45.549 C788.795,-49.789 797.498,-47.302 793.388,-34.362 C789.295,-32.683 786.682,-33.478 786.682,-33.478 C785.116,-34.128 784.706,-34.933 785.322,-35.702 C794.996,-39.998 787.08,-42.713 783.394,-42.248 C751.352,-28.337 728.484,-33.256 730.556,-68.675 L725.501,-68.675 C728.921,-32.424 704.737,-25.925 672.694,-39.836 C669.008,-40.301 661.092,-37.586 670.766,-33.29 C671.382,-32.521 670.972,-31.716 669.407,-31.066 C669.407,-31.066 666.793,-30.27 662.701,-31.95 C658.59,-44.89 667.293,-47.376 677.533,-43.137 C686.668,-38.468 730.953,-23.63 716.214,-71.476 L736.614,-83.503 z" fill="#8B8B8B"/>
        <g>
          <path d="M684.163,-13.308 L693.116,4.044 C693.116,4.044 693.109,9.573 685.91,11.757 L685.224,3.576 C685.224,3.576 685.55,15.693 679.84,17.809 L677.053,10.427 C677.054,10.427 679.054,20.565 671.518,24.71 L671.518,13.721 C670.578,20.026 670.314,24.999 662.997,30.011 L662.348,13.721 C660.937,22.361 656.775,34.438 650.671,35.999 L650.671,11.253 C650.671,11.253 680.829,-5.549 684.163,-13.308 z" fill="#C3C2C2"/>
          <path d="M771.508,-13.308 L762.555,4.044 C762.555,4.044 762.562,9.573 769.761,11.757 L770.448,3.576 C770.448,3.576 770.121,15.693 775.831,17.809 L778.618,10.427 C778.618,10.427 776.617,20.565 784.154,24.71 L784.154,13.721 C785.093,20.026 785.358,24.999 792.674,30.011 L793.323,13.721 C794.735,22.361 798.896,34.438 805,35.999 L805,11.253 C805,11.253 774.842,-5.549 771.508,-13.308 z" fill="#C3C2C2"/>
        </g>
        <path d="M692.882,-5.234 L765.736,-6.803" fill-opacity="0" stroke="#8B8B8B" stroke-width="5"/>
        <path d="M684.57,-23.531 L771.629,-25.405" fill-opacity="0" stroke="#8B8B8B" stroke-width="5"/>
        <path d="M680.734,-27.378 L705.137,21.184 L729.54,69.747 L752.739,20.598 L775.937,-28.552 L728.336,-27.965 z" fill-opacity="0" stroke="#6F6F6F" stroke-width="5"/>
        <g>
          <g>
            <path d="M711.954,31.938 L727.345,2.269" fill-opacity="0" stroke="#6F6F6F" stroke-width="5"/>
            <path d="M745.167,31.858 L729.248,2.198" fill-opacity="0" stroke="#6F6F6F" stroke-width="5"/>
            <path d="M723.604,4.358 L733.181,4.317" fill-opacity="0" stroke="#6F6F6F" stroke-width="5"/>
          </g>
          <path d="M715.542,25.352 L741.169,25.242" fill-opacity="0" stroke="#6F6F6F" stroke-width="5"/>
        </g>
        <g>
          <path d="M659.618,-31.33 C660.46,-28.462 662.516,-27.007 665.414,-26.715 C667.748,-26.795 669.812,-28.006 670.728,-30.184 C670.955,-29.645 670.792,-30.077 670.92,-28.81 C670.92,-25.503 668.239,-22.823 664.932,-22.823 C661.625,-22.823 658.944,-25.503 658.944,-28.81 C659.113,-30.49 658.909,-29.645 659.618,-31.33 z" fill="#8B8B8B"/>
          <path d="M659.618,-31.33 C660.46,-28.462 662.516,-27.007 665.414,-26.715 C667.748,-26.795 669.812,-28.006 670.728,-30.184 C670.955,-29.645 670.792,-30.077 670.92,-28.81 C670.92,-25.503 668.239,-22.823 664.932,-22.823 C661.625,-22.823 658.944,-25.503 658.944,-28.81 C659.113,-30.49 658.909,-29.645 659.618,-31.33 z" fill-opacity="0" stroke="#C3C2C2" stroke-width="0.25" stroke-opacity="0.001"/>
        </g>
        <g>
          <path d="M798.234,-31.557 C797.645,-28.626 795.723,-26.998 792.862,-26.455 C790.53,-26.331 788.369,-27.357 787.266,-29.447 C787.087,-28.89 787.212,-29.335 787.195,-28.062 C787.483,-24.768 790.387,-22.33 793.682,-22.619 C796.976,-22.907 799.413,-25.811 799.125,-29.106 C798.81,-30.764 799.087,-29.94 798.234,-31.557 z" fill="#8B8B8B"/>
          <path d="M798.234,-31.557 C797.645,-28.626 795.723,-26.998 792.862,-26.455 C790.53,-26.331 788.369,-27.357 787.266,-29.447 C787.087,-28.89 787.212,-29.335 787.195,-28.062 C787.483,-24.768 790.387,-22.33 793.682,-22.619 C796.976,-22.907 799.413,-25.811 799.125,-29.106 C798.81,-30.764 799.087,-29.94 798.234,-31.557 z" fill-opacity="0" stroke="#C3C2C2" stroke-width="0.25" stroke-opacity="0.001"/>
        </g>
      </g>
    </g>
  </g>
</svg>
