<?xml version="1.0" encoding="UTF-8"?>
<!DOCTYPE svg PUBLIC "-//W3C//DTD SVG 1.1//EN" "http://www.w3.org/Graphics/SVG/1.1/DTD/svg11.dtd">
<svg version="1.1" xmlns="http://www.w3.org/2000/svg" xmlns:xlink="http://www.w3.org/1999/xlink" x="0" y="0" width="28.809" height="28.809" viewBox="0, 0, 205.776, 205.776">
  <g id="Capa_1" transform="translate(-130.659, 237.443)">
    <g>
      <g>
        <path d="M217.054,-103.475 C220.218,-84.606 201.345,-84.34 201.345,-84.34 C201.345,-84.34 201.453,-84.345 201.32,-84.34 C187.373,-83.793 185.011,-71.285 187.926,-66.025 C195.014,-64.041 204.047,-70.334 201.98,-83.628 C201.959,-83.759 201.973,-83.652 201.973,-83.652 C201.973,-83.652 197.311,-101.647 216.355,-103.475" fill-opacity="0" stroke="#FFFFFF" stroke-width="2" stroke-linecap="round" stroke-linejoin="round"/>
        <path d="M251.039,-103.475 C247.876,-84.606 266.748,-84.34 266.748,-84.34 C266.748,-84.34 266.641,-84.345 266.774,-84.34 C280.72,-83.793 283.082,-71.285 280.167,-66.025 C273.079,-64.041 264.047,-70.334 266.114,-83.628 C266.134,-83.759 266.12,-83.652 266.12,-83.652 C266.12,-83.652 270.782,-101.647 251.738,-103.475" fill-opacity="0" stroke="#FFFFFF" stroke-width="2" stroke-linecap="round" stroke-linejoin="round"/>
      </g>
      <g>
        <path d="M199.79,-134.389 C191.068,-118.173 157.163,-103.638 157.163,-103.638 L157.163,-74.104 C163.537,-76.493 167.343,-91.513 167.718,-96.127 L167.718,-81.005 C174.59,-82.676 174.904,-98.668 174.315,-100.999 L176.041,-84.253 C183.53,-86.591 182.435,-102.115 182.435,-102.115 L184.972,-90.342 C189.831,-90.217 189.133,-111.96 189.133,-111.96 L189.945,-96.127 C198.341,-97.707 195.527,-116.527 195.527,-116.527 L198.369,-103.638 C202.235,-105.743 201.718,-120.485 201.718,-120.485 L207.401,-117.237 L209.025,-118.151 L199.79,-134.389" fill="#FFFFFF"/>
        <path d="M267.304,-134.389 C276.025,-118.173 309.93,-103.638 309.93,-103.638 L309.93,-74.104 C303.557,-76.493 299.751,-91.513 299.375,-96.127 L299.375,-81.005 C292.504,-82.676 292.19,-98.668 292.778,-100.999 L291.053,-84.253 C283.563,-86.591 284.659,-102.115 284.659,-102.115 L282.121,-90.342 C277.262,-90.217 277.96,-111.96 277.96,-111.96 L277.148,-96.127 C268.752,-97.707 271.566,-116.527 271.566,-116.527 L268.725,-103.638 C264.859,-105.743 265.375,-120.485 265.375,-120.485 L259.692,-117.237 L258.068,-118.151 L267.304,-134.389" fill="#FFFFFF"/>
      </g>
      <g>
        <g>
          <path d="M206.197,-50.209 C209.16,-67.527 224.451,-72.608 232.651,-70.98 C229.688,-53.662 214.398,-48.581 206.197,-50.209" fill-opacity="0" stroke="#FFFFFF" stroke-width="2" stroke-linecap="round" stroke-linejoin="round"/>
          <path d="M261.896,-49.492 C259.38,-66.881 244.225,-72.354 235.985,-70.937 C238.502,-53.549 253.657,-48.076 261.896,-49.492" fill-opacity="0" stroke="#FFFFFF" stroke-width="2" stroke-linecap="round" stroke-linejoin="round"/>
        </g>
        <path d="M233.514,-34.054 C222.152,-47.456 228.088,-62.436 234.606,-67.671 C245.968,-54.269 240.032,-39.29 233.514,-34.054" fill-opacity="0" stroke="#FFFFFF" stroke-width="2" stroke-linecap="round" stroke-linejoin="round"/>
      </g>
      <path d="M242.076,-234.555 L212.144,-216.42 C218.827,-206.963 224.446,-194.073 211.921,-186.784 C203.297,-182.77 192.112,-184.434 185.387,-191.3 C180.993,-194.435 175.145,-194.543 169.966,-194.2 C164.292,-193.607 158.852,-191.376 157.521,-185.377 L157.105,-139.143 C161.27,-142.669 164.065,-147.968 165.538,-153.166 C165.624,-153.605 166.05,-153.893 166.49,-153.807 C166.93,-153.721 167.217,-153.295 167.132,-152.855 L167.098,-152.736 L167.146,-152.619 L167.146,-145.036 C169.952,-145.913 171.544,-148.314 172.854,-150.74 C173.411,-152.058 173.76,-153.476 173.94,-154.916 C174.06,-155.88 174.089,-156.714 174.068,-157.339 C174.064,-157.438 174.064,-157.438 174.063,-157.45 L174.073,-157.479 L174.073,-157.501 L174.117,-157.606 C174.269,-158.052 174.128,-157.971 174.304,-158.057 C174.337,-158.138 174.305,-158.073 174.501,-158.154 L174.822,-158.312 L174.855,-158.3 L174.885,-158.313 L175.206,-158.18 C175.417,-158.108 175.379,-158.175 175.42,-158.092 C175.599,-158.018 175.454,-158.089 175.632,-157.657 L175.684,-157.552 L175.685,-157.53 L175.697,-157.501 L175.697,-149.723 C179.255,-151.014 181.78,-154.959 181.852,-158.653 L181.871,-158.726 L181.87,-158.758 L181.895,-158.818 C182.018,-159.285 181.88,-159.178 182.092,-159.302 C182.125,-159.382 182.095,-159.329 182.251,-159.395 L182.546,-159.567 L182.616,-159.548 L182.678,-159.574 L182.968,-159.456 C183.16,-159.405 183.116,-159.462 183.167,-159.375 C183.388,-159.285 183.241,-159.368 183.423,-158.937 L183.46,-158.872 L183.46,-158.848 L183.494,-158.767 L183.514,-155.166 C185.806,-156.732 184.898,-155.94 186.363,-157.393 C186.803,-157.877 187.194,-158.381 187.497,-158.838 C187.699,-159.153 187.609,-159.004 187.77,-159.283 L186.272,-170.679 L186.172,-170.679 L186.172,-172.303 L280.762,-172.303 L280.762,-170.679 L280.703,-170.679 L279.728,-157.925 L279.729,-157.926 C279.794,-157.805 279.892,-157.644 280.011,-157.465 C280.315,-157.008 280.706,-156.504 281.146,-156.02 C282.526,-154.635 281.882,-155.236 284.014,-153.783 L284.014,-157.389 L284.022,-157.409 L284.022,-157.499 L284.153,-157.724 C284.26,-157.981 284.172,-157.93 284.306,-157.986 C284.379,-158.111 284.317,-158.031 284.587,-158.102 L284.826,-158.201 L284.88,-158.179 L284.936,-158.194 L285.16,-158.063 C285.418,-157.956 285.367,-158.043 285.423,-157.909 C285.547,-157.837 285.468,-157.899 285.539,-157.63 L285.638,-157.389 L285.638,-157.199 C285.845,-153.213 288.215,-149.949 291.811,-148.349 L291.811,-156.128 C291.812,-156.576 292.175,-156.94 292.623,-156.94 C293.287,-156.665 293.118,-156.894 293.309,-156.433 C293.85,-156.167 293.622,-156.383 293.865,-155.67 C293.864,-155.659 293.864,-155.659 293.86,-155.564 C293.84,-154.959 293.869,-154.152 293.987,-153.219 C294.164,-151.825 294.509,-150.453 295.059,-149.178 C296.058,-146.616 298.032,-145.056 300.362,-143.804 L300.362,-151.637 L300.454,-151.858 C300.508,-152.12 300.436,-152.05 300.569,-152.138 C300.63,-152.285 300.575,-152.201 300.821,-152.303 L301.023,-152.435 L301.101,-152.419 L301.174,-152.449 L301.396,-152.357 C301.657,-152.303 301.587,-152.375 301.674,-152.242 C301.822,-152.18 301.738,-152.236 301.84,-151.989 L301.971,-151.788 C303.522,-146.581 306.099,-141.078 310.405,-137.582 L309.988,-183.885 C304.591,-195.492 293.272,-199.673 281.799,-193.995 L281.797,-193.994 C274.68,-189.298 267.677,-187.176 259.192,-188.806 C258.251,-188.986 257.402,-189.486 256.507,-189.827 C248.877,-193.605 246.742,-202.855 251.578,-215.992 L251.834,-216.287 C252.418,-217.809 253.988,-218.329 255.405,-218.768 C258.013,-218.518 256.892,-218.768 258.805,-218.196 C259.937,-217.793 261.124,-217.204 262.367,-216.463 C262.968,-216.105 263.556,-215.727 264.167,-215.313 C264.286,-215.232 264.404,-215.151 264.523,-215.07 C264.524,-215.069 264.526,-215.068 264.528,-215.066 L264.528,-223.044 L264.384,-223.527 C262.138,-229.59 254.441,-229.544 249.54,-226.943 L249.549,-226.93 L248.23,-225.983 L247.757,-226.642 L242.076,-234.555 z" fill="#FFFFFF"/>
      <path d="M242.325,-226.854 C234.571,-169.452 274.023,-184.627 284.266,-188.899 C294.506,-193.139 303.209,-190.653 299.099,-177.713 C295.006,-176.033 292.393,-176.829 292.393,-176.829 C290.827,-177.478 290.417,-178.284 291.033,-179.053 C300.707,-183.349 292.791,-186.063 289.105,-185.599 C257.063,-171.688 234.195,-176.606 236.267,-212.026 L231.212,-212.026 C234.632,-175.775 210.448,-169.276 178.405,-183.187 C174.72,-183.651 166.803,-180.936 176.477,-176.64 C177.093,-175.871 176.683,-175.066 175.118,-174.416 C175.118,-174.416 172.504,-173.621 168.412,-175.3 C164.301,-188.24 173.004,-190.727 183.245,-186.487 C192.379,-181.818 236.664,-166.981 221.925,-214.827 L242.325,-226.854 z" fill="#8B8B8B"/>
      <g>
        <path d="M189.874,-156.658 L198.827,-139.307 C198.827,-139.307 198.82,-133.778 191.622,-131.593 L190.935,-139.775 C190.935,-139.775 191.261,-127.657 185.551,-125.541 L182.765,-132.924 C182.765,-132.924 184.765,-122.785 177.229,-118.64 L177.229,-129.629 C176.289,-123.324 176.025,-118.351 168.708,-113.34 L168.059,-129.629 C166.648,-120.99 162.486,-108.913 156.382,-107.352 L156.382,-132.097 C156.382,-132.097 186.54,-148.9 189.874,-156.658 z" fill="#FFFFFF"/>
        <path d="M277.219,-156.658 L268.266,-139.307 C268.266,-139.307 268.273,-133.778 275.472,-131.593 L276.159,-139.775 C276.159,-139.775 275.832,-127.657 281.542,-125.541 L284.329,-132.924 C284.329,-132.924 282.328,-122.785 289.865,-118.64 L289.865,-129.629 C290.804,-123.324 291.069,-118.351 298.385,-113.34 L299.034,-129.629 C300.446,-120.99 304.607,-108.913 310.711,-107.352 L310.711,-132.097 C310.711,-132.097 280.554,-148.9 277.219,-156.658 z" fill="#FFFFFF"/>
      </g>
      <path d="M198.593,-148.585 L271.447,-150.153" fill-opacity="0" stroke="#F6F6F6" stroke-width="5"/>
      <path d="M190.281,-166.881 L277.34,-168.756" fill-opacity="0" stroke="#FFFFFF" stroke-width="5"/>
      <path d="M186.445,-170.729 L210.848,-122.166 L235.251,-73.604 L258.45,-122.753 L281.648,-171.902 L234.047,-171.315 z" fill-opacity="0" stroke="#FFFFFF" stroke-width="5"/>
      <g>
        <g>
          <path d="M217.665,-111.412 L233.056,-141.082" fill-opacity="0" stroke="#FFFFFF" stroke-width="5"/>
          <path d="M250.878,-111.492 L234.959,-141.153" fill-opacity="0" stroke="#FFFFFF" stroke-width="5"/>
          <path d="M229.315,-138.992 L238.892,-139.033" fill-opacity="0" stroke="#FFFFFF" stroke-width="5"/>
        </g>
        <path d="M221.253,-117.999 L246.88,-118.109" fill-opacity="0" stroke="#FFFFFF" stroke-width="5"/>
      </g>
      <g>
        <path d="M165.329,-174.681 C166.171,-171.812 168.227,-170.358 171.125,-170.066 C173.459,-170.146 175.523,-171.357 176.439,-173.534 C176.666,-172.995 176.503,-173.428 176.631,-172.161 C176.631,-168.854 173.95,-166.173 170.643,-166.173 C167.336,-166.173 164.655,-168.854 164.655,-172.161 C164.824,-173.84 164.62,-172.995 165.329,-174.681 z" fill="#8B8B8B"/>
        <path d="M165.329,-174.681 C166.171,-171.812 168.227,-170.358 171.125,-170.066 C173.459,-170.146 175.523,-171.357 176.439,-173.534 C176.666,-172.995 176.503,-173.428 176.631,-172.161 C176.631,-168.854 173.95,-166.173 170.643,-166.173 C167.336,-166.173 164.655,-168.854 164.655,-172.161 C164.824,-173.84 164.62,-172.995 165.329,-174.681 z" fill-opacity="0" stroke="#C3C2C2" stroke-width="0.25" stroke-opacity="0.001"/>
      </g>
      <g>
        <path d="M303.945,-174.908 C303.356,-171.977 301.434,-170.349 298.573,-169.805 C296.241,-169.681 294.08,-170.708 292.977,-172.797 C292.798,-172.241 292.923,-172.686 292.906,-171.413 C293.194,-168.118 296.098,-165.681 299.393,-165.969 C302.687,-166.257 305.124,-169.162 304.836,-172.456 C304.521,-174.114 304.798,-173.29 303.945,-174.908 z" fill="#8B8B8B"/>
        <path d="M303.945,-174.908 C303.356,-171.977 301.434,-170.349 298.573,-169.805 C296.241,-169.681 294.08,-170.708 292.977,-172.797 C292.798,-172.241 292.923,-172.686 292.906,-171.413 C293.194,-168.118 296.098,-165.681 299.393,-165.969 C302.687,-166.257 305.124,-169.162 304.836,-172.456 C304.521,-174.114 304.798,-173.29 303.945,-174.908 z" fill-opacity="0" stroke="#C3C2C2" stroke-width="0.25" stroke-opacity="0.001"/>
      </g>
    </g>
  </g>
</svg>
