<?xml version="1.0" encoding="UTF-8" standalone="no"?>
<!-- Generator: Adobe Illustrator 16.0.0, SVG Export Plug-In . SVG Version: 6.00 Build 0)  -->

<svg
   xmlns:dc="http://purl.org/dc/elements/1.1/"
   xmlns:cc="http://creativecommons.org/ns#"
   xmlns:rdf="http://www.w3.org/1999/02/22-rdf-syntax-ns#"
   xmlns:svg="http://www.w3.org/2000/svg"
   xmlns="http://www.w3.org/2000/svg"
   xmlns:sodipodi="http://sodipodi.sourceforge.net/DTD/sodipodi-0.dtd"
   xmlns:inkscape="http://www.inkscape.org/namespaces/inkscape"
   version="1.1"
   id="Capa_1"
   x="0px"
   y="0px"
   width="35"
   height="35"
   viewBox="0 0 35 35"
   xml:space="preserve"
   inkscape:version="0.91 r13725"
   sodipodi:docname="compose.svg"><metadata
     id="metadata51"><rdf:RDF><cc:Work
         rdf:about=""><dc:format>image/svg+xml</dc:format><dc:type
           rdf:resource="http://purl.org/dc/dcmitype/StillImage" /><dc:title></dc:title></cc:Work></rdf:RDF></metadata><defs
     id="defs49" /><sodipodi:namedview
     pagecolor="#ffffff"
     bordercolor="#666666"
     borderopacity="1"
     objecttolerance="10"
     gridtolerance="10"
     guidetolerance="10"
     inkscape:pageopacity="0"
     inkscape:pageshadow="2"
     inkscape:window-width="1366"
     inkscape:window-height="705"
     id="namedview47"
     showgrid="false"
     inkscape:zoom="4.8333914"
     inkscape:cx="29.172063"
     inkscape:cy="24.4135"
     inkscape:window-x="-8"
     inkscape:window-y="-8"
     inkscape:window-maximized="1"
     inkscape:current-layer="Capa_1" /><g
     id="g3"
     transform="matrix(0.71681285,0,0,0.71681285,0,0.72487634)"
     style="fill:#ffffff;fill-opacity:1"><g
       id="g5"
       style="fill:#ffffff;fill-opacity:1"><g
         id="g7"
         style="fill:#ffffff;fill-opacity:1"><path
           d="M 48.15,6.05 43.782,1.688 C 43.331,1.237 42.738,1.011 42.146,1.011 c -0.593,0 -1.186,0.225 -1.636,0.676 l -3.494,3.484 7.64,7.626 3.494,-3.483 c 0.903,-0.902 0.903,-2.365 0,-3.264 z"
           id="path9"
           inkscape:connector-curvature="0"
           style="fill:#ffffff;fill-opacity:1" /><polygon
           points="21.976,35.437 43.021,14.431 35.381,6.804 14.336,27.81 "
           id="polygon11"
           style="fill:#ffffff;fill-opacity:1" /><polygon
           points="12.687,29.441 11.056,38.694 20.327,37.067 "
           id="polygon13"
           style="fill:#ffffff;fill-opacity:1" /><path
           d="m 33.807,42.816 -28.806,0 0,-28.805 20.329,0 5.01,-5 -27.106,0 C 1.455,9.011 0,10.466 0,12.245 l 0,32.338 c 0,1.778 1.455,3.233 3.234,3.233 l 32.339,0 c 1.777,0 3.232,-1.455 3.232,-3.233 l 0,-23.121 -5,4.992 0.002,16.362 0,0 z"
           id="path15"
           inkscape:connector-curvature="0"
           style="fill:#ffffff;fill-opacity:1" /></g></g></g><g
     id="g17"
     transform="translate(0,-13.827)" /><g
     id="g19"
     transform="translate(0,-13.827)" /><g
     id="g21"
     transform="translate(0,-13.827)" /><g
     id="g23"
     transform="translate(0,-13.827)" /><g
     id="g25"
     transform="translate(0,-13.827)" /><g
     id="g27"
     transform="translate(0,-13.827)" /><g
     id="g29"
     transform="translate(0,-13.827)" /><g
     id="g31"
     transform="translate(0,-13.827)" /><g
     id="g33"
     transform="translate(0,-13.827)" /><g
     id="g35"
     transform="translate(0,-13.827)" /><g
     id="g37"
     transform="translate(0,-13.827)" /><g
     id="g39"
     transform="translate(0,-13.827)" /><g
     id="g41"
     transform="translate(0,-13.827)" /><g
     id="g43"
     transform="translate(0,-13.827)" /><g
     id="g45"
     transform="translate(0,-13.827)" /></svg>