<?xml version="1.0" encoding="UTF-8"?>
<!DOCTYPE svg PUBLIC "-//W3C//DTD SVG 1.1//EN" "http://www.w3.org/Graphics/SVG/1.1/DTD/svg11.dtd">
<svg version="1.1" xmlns="http://www.w3.org/2000/svg" xmlns:xlink="http://www.w3.org/1999/xlink" x="0" y="0" width="27.844" height="27.844" viewBox="0, 0, 92.813, 92.813">
  <g id="Layer_1" transform="translate(-353.594, -300.549)">
    <g>
      <g>
        <path d="M366.178,316.971 L433.822,316.971 L433.822,329.383 L366.178,329.383 z" fill="#FFFFFF"/>
        <path d="M417.393,369.211 L424.613,369.211 L424.613,375.194 L417.393,375.194 z" fill="#FFFFFF"/>
        <path d="M433.822,384.519 C433.822,385.755 432.816,386.76 431.581,386.76 L368.419,386.76 C367.184,386.76 366.178,385.755 366.178,384.519 L366.178,334.721 L433.822,334.721 L433.822,384.519 z M366.178,316.971 L433.822,316.971 L433.822,329.383 L366.178,329.383 z M366.178,307.151 L433.822,307.151 L433.822,311.633 L366.178,311.633 z M436.491,301.813 L363.509,301.813 C362.035,301.813 360.841,303.008 360.841,304.482 L360.841,384.519 C360.841,388.698 364.241,392.098 368.419,392.098 L431.581,392.098 C435.759,392.098 439.159,388.698 439.159,384.519 L439.159,304.482 C439.159,303.008 437.965,301.813 436.491,301.813" fill="#FFFFFF"/>
        <path d="M372.717,346.568 L385.276,346.568 C386.75,346.568 387.945,345.373 387.945,343.899 C387.945,342.425 386.75,341.23 385.276,341.23 L372.717,341.23 C371.243,341.23 370.048,342.425 370.048,343.899 C370.048,345.373 371.243,346.568 372.717,346.568" fill="#FFFFFF"/>
        <path d="M414.725,346.568 L427.283,346.568 C428.757,346.568 429.952,345.373 429.952,343.899 C429.952,342.425 428.757,341.23 427.283,341.23 L414.725,341.23 C413.25,341.23 412.056,342.425 412.056,343.899 C412.056,345.373 413.25,346.568 414.725,346.568" fill="#FFFFFF"/>
        <path d="M393.72,346.568 L406.28,346.568 C407.754,346.568 408.948,345.373 408.948,343.899 C408.948,342.425 407.754,341.23 406.28,341.23 L393.72,341.23 C392.246,341.23 391.052,342.425 391.052,343.899 C391.052,345.373 392.246,346.568 393.72,346.568" fill="#FFFFFF"/>
        <path d="M372.717,357.889 L385.276,357.889 C386.75,357.889 387.945,356.695 387.945,355.22 C387.945,353.746 386.75,352.551 385.276,352.551 L372.717,352.551 C371.243,352.551 370.048,353.746 370.048,355.22 C370.048,356.695 371.243,357.889 372.717,357.889" fill="#FFFFFF"/>
        <path d="M414.725,357.889 L427.283,357.889 C428.757,357.889 429.952,356.695 429.952,355.22 C429.952,353.746 428.757,352.551 427.283,352.551 L414.725,352.551 C413.25,352.551 412.056,353.746 412.056,355.22 C412.056,356.695 413.25,357.889 414.725,357.889" fill="#FFFFFF"/>
        <path d="M393.72,357.889 L406.28,357.889 C407.754,357.889 408.948,356.695 408.948,355.22 C408.948,353.746 407.754,352.551 406.28,352.551 L393.72,352.551 C392.246,352.551 391.052,353.746 391.052,355.22 C391.052,356.695 392.246,357.889 393.72,357.889" fill="#FFFFFF"/>
        <path d="M372.717,369.211 L385.276,369.211 C386.75,369.211 387.945,368.016 387.945,366.542 C387.945,365.068 386.75,363.873 385.276,363.873 L372.717,363.873 C371.243,363.873 370.048,365.068 370.048,366.542 C370.048,368.016 371.243,369.211 372.717,369.211" fill="#FFFFFF"/>
        <path d="M417.393,369.211 L424.614,369.211 L424.614,375.194 L417.393,375.194 z M414.725,380.533 L427.283,380.533 C428.757,380.533 429.952,379.338 429.952,377.864 L429.952,366.542 C429.952,365.068 428.757,363.873 427.283,363.873 L414.725,363.873 C413.25,363.873 412.056,365.068 412.056,366.542 L412.056,377.864 C412.056,379.338 413.25,380.533 414.725,380.533" fill="#FFFFFF"/>
        <path d="M393.72,369.211 L406.28,369.211 C407.754,369.211 408.948,368.016 408.948,366.542 C408.948,365.068 407.754,363.873 406.28,363.873 L393.72,363.873 C392.246,363.873 391.052,365.068 391.052,366.542 C391.052,368.016 392.246,369.211 393.72,369.211" fill="#FFFFFF"/>
        <path d="M372.717,380.533 L385.276,380.533 C386.75,380.533 387.945,379.338 387.945,377.864 C387.945,376.39 386.75,375.194 385.276,375.194 L372.717,375.194 C371.243,375.194 370.048,376.39 370.048,377.864 C370.048,379.338 371.243,380.533 372.717,380.533" fill="#FFFFFF"/>
        <path d="M393.72,380.533 L406.28,380.533 C407.754,380.533 408.948,379.338 408.948,377.864 C408.948,376.39 407.754,375.194 406.28,375.194 L393.72,375.194 C392.246,375.194 391.052,376.39 391.052,377.864 C391.052,379.338 392.246,380.533 393.72,380.533" fill="#FFFFFF"/>
      </g>
    </g>
  </g>
</svg>
