<?xml version="1.0" encoding="UTF-8"?>
<!DOCTYPE svg PUBLIC "-//W3C//DTD SVG 1.1//EN" "http://www.w3.org/Graphics/SVG/1.1/DTD/svg11.dtd">
<svg version="1.1" xmlns="http://www.w3.org/2000/svg" xmlns:xlink="http://www.w3.org/1999/xlink" x="0" y="0" width="32.693" height="40" viewBox="0, 0, 204.329, 250">
  <g id="Capa_1" transform="translate(-351.8, -523.17)">
    <g>
      <g>
        <g>
          <path d="M406.863,613.354 L431.266,661.916 L455.669,710.479 L478.868,661.33 L502.066,612.18 L454.465,612.767 z" fill="#212121"/>
          <path d="M406.863,613.354 L431.266,661.916 L455.669,710.479 L478.868,661.33 L502.066,612.18 L454.465,612.767 z" fill-opacity="0" stroke="#212121" stroke-width="24" stroke-linecap="round" stroke-miterlimit="2"/>
        </g>
        <g>
          <path d="M407.09,612.545 L419.011,634.14 L490.027,634.14 L501.62,612.545 L407.09,612.545" fill="#212121"/>
          <path d="M407.09,612.545 L419.011,634.14 L490.027,634.14 L501.62,612.545 L407.09,612.545" fill-opacity="0" stroke="#212121" stroke-width="24" stroke-linecap="round" stroke-miterlimit="2"/>
        </g>
        <g>
          <g>
            <g>
              <path d="M437.697,679.25 C440.861,698.118 421.988,698.384 421.988,698.384 C421.988,698.384 422.096,698.379 421.963,698.384 C408.016,698.932 405.654,711.44 408.569,716.7 C415.657,718.683 424.69,712.391 422.623,699.097 C422.602,698.965 422.616,699.072 422.616,699.072 C422.616,699.072 417.954,681.077 436.998,679.25" fill="#212121"/>
              <path d="M437.697,679.25 C440.861,698.118 421.988,698.384 421.988,698.384 C421.988,698.384 422.096,698.379 421.963,698.384 C408.016,698.932 405.654,711.44 408.569,716.7 C415.657,718.683 424.69,712.391 422.623,699.097 C422.602,698.965 422.616,699.072 422.616,699.072 C422.616,699.072 417.954,681.077 436.998,679.25" fill-opacity="0" stroke="#212121" stroke-width="24" stroke-linecap="round" stroke-miterlimit="2"/>
            </g>
            <g>
              <path d="M471.682,679.25 C468.519,698.118 487.391,698.384 487.391,698.384 C487.391,698.384 487.284,698.379 487.416,698.384 C501.363,698.932 503.725,711.44 500.81,716.7 C493.722,718.683 484.689,712.391 486.757,699.097 C486.777,698.965 486.763,699.072 486.763,699.072 C486.763,699.072 491.425,681.077 472.381,679.25" fill="#212121"/>
              <path d="M471.682,679.25 C468.519,698.118 487.391,698.384 487.391,698.384 C487.391,698.384 487.284,698.379 487.416,698.384 C501.363,698.932 503.725,711.44 500.81,716.7 C493.722,718.683 484.689,712.391 486.757,699.097 C486.777,698.965 486.763,699.072 486.763,699.072 C486.763,699.072 491.425,681.077 472.381,679.25" fill-opacity="0" stroke="#212121" stroke-width="24" stroke-linecap="round" stroke-miterlimit="2"/>
            </g>
          </g>
          <g>
            <g>
              <path d="M420.708,648.835 C411.986,665.052 378.081,679.587 378.081,679.587 L378.081,709.121 C384.455,706.732 388.261,691.711 388.636,687.097 L388.636,702.219 C395.508,700.549 395.822,684.556 395.233,682.226 L396.959,698.972 C404.448,696.633 403.353,681.109 403.353,681.109 L405.89,692.882 C410.749,693.007 410.051,671.265 410.051,671.265 L410.863,687.097 C419.259,685.517 416.445,666.698 416.445,666.698 L419.287,679.587 C423.153,677.482 422.636,662.739 422.636,662.739 L428.319,665.987 L429.943,665.074 L420.708,648.835" fill="#212121"/>
              <path d="M420.708,648.835 C411.986,665.052 378.081,679.587 378.081,679.587 L378.081,709.121 C384.455,706.732 388.261,691.711 388.636,687.097 L388.636,702.219 C395.508,700.549 395.822,684.556 395.233,682.226 L396.959,698.972 C404.448,696.633 403.353,681.109 403.353,681.109 L405.89,692.882 C410.749,693.007 410.051,671.265 410.051,671.265 L410.863,687.097 C419.259,685.517 416.445,666.698 416.445,666.698 L419.287,679.587 C423.153,677.482 422.636,662.739 422.636,662.739 L428.319,665.987 L429.943,665.074 L420.708,648.835" fill-opacity="0" stroke="#212121" stroke-width="24" stroke-linecap="round" stroke-miterlimit="2"/>
            </g>
            <g>
              <path d="M488.222,648.835 C496.943,665.052 530.848,679.587 530.848,679.587 L530.848,709.121 C524.475,706.732 520.669,691.711 520.293,687.097 L520.293,702.219 C513.422,700.549 513.108,684.556 513.696,682.226 L511.971,698.972 C504.481,696.633 505.577,681.109 505.577,681.109 L503.039,692.882 C498.18,693.007 498.878,671.265 498.878,671.265 L498.066,687.097 C489.67,685.517 492.484,666.698 492.484,666.698 L489.643,679.587 C485.777,677.482 486.293,662.739 486.293,662.739 L480.61,665.987 L478.986,665.074 L488.222,648.835" fill="#212121"/>
              <path d="M488.222,648.835 C496.943,665.052 530.848,679.587 530.848,679.587 L530.848,709.121 C524.475,706.732 520.669,691.711 520.293,687.097 L520.293,702.219 C513.422,700.549 513.108,684.556 513.696,682.226 L511.971,698.972 C504.481,696.633 505.577,681.109 505.577,681.109 L503.039,692.882 C498.18,693.007 498.878,671.265 498.878,671.265 L498.066,687.097 C489.67,685.517 492.484,666.698 492.484,666.698 L489.643,679.587 C485.777,677.482 486.293,662.739 486.293,662.739 L480.61,665.987 L478.986,665.074 L488.222,648.835" fill-opacity="0" stroke="#212121" stroke-width="24" stroke-linecap="round" stroke-miterlimit="2"/>
            </g>
          </g>
          <g>
            <g>
              <g>
                <path d="M426.615,732.516 C429.578,715.198 444.868,710.116 453.069,711.744 C450.106,729.063 434.815,734.144 426.615,732.516" fill="#212121"/>
                <path d="M426.615,732.516 C429.578,715.198 444.868,710.116 453.069,711.744 C450.106,729.063 434.815,734.144 426.615,732.516" fill-opacity="0" stroke="#212121" stroke-width="24" stroke-linecap="round" stroke-miterlimit="2"/>
              </g>
              <g>
                <path d="M482.314,733.232 C479.797,715.844 464.643,710.371 456.403,711.787 C458.92,729.176 474.075,734.649 482.314,733.232" fill="#212121"/>
                <path d="M482.314,733.232 C479.797,715.844 464.643,710.371 456.403,711.787 C458.92,729.176 474.075,734.649 482.314,733.232" fill-opacity="0" stroke="#212121" stroke-width="24" stroke-linecap="round" stroke-miterlimit="2"/>
              </g>
            </g>
            <g>
              <path d="M453.931,748.67 C442.57,735.268 448.506,720.289 455.024,715.053 C466.386,728.455 460.45,743.434 453.931,748.67" fill="#212121"/>
              <path d="M453.931,748.67 C442.57,735.268 448.506,720.289 455.024,715.053 C466.386,728.455 460.45,743.434 453.931,748.67" fill-opacity="0" stroke="#212121" stroke-width="24" stroke-linecap="round" stroke-miterlimit="2"/>
            </g>
          </g>
          <g>
            <path d="M462.994,548.67 L433.062,566.804 C439.745,576.262 445.364,589.152 432.839,596.44 C424.215,600.455 413.03,598.79 406.305,591.925 C401.911,588.79 396.063,588.682 390.884,589.024 C385.21,589.617 379.77,591.848 378.439,597.847 L378.023,644.081 C382.188,640.556 384.983,635.256 386.456,630.059 C386.542,629.619 386.968,629.332 387.408,629.417 C387.848,629.503 388.135,629.93 388.05,630.37 L388.016,630.489 L388.065,630.605 L388.065,638.188 C390.87,637.312 392.462,634.91 393.772,632.484 C394.329,631.166 394.678,629.748 394.858,628.309 C394.978,627.345 395.007,626.511 394.986,625.885 C394.982,625.786 394.982,625.786 394.981,625.774 L394.991,625.745 L394.991,625.723 L395.035,625.619 C395.187,625.173 395.046,625.253 395.222,625.167 C395.255,625.086 395.223,625.152 395.419,625.071 L395.74,624.913 L395.773,624.924 L395.803,624.911 L396.124,625.044 C396.335,625.116 396.297,625.049 396.338,625.133 C396.517,625.207 396.372,625.136 396.55,625.567 L396.602,625.672 L396.603,625.694 L396.615,625.723 L396.615,633.501 C400.173,632.211 402.698,628.265 402.77,624.572 L402.789,624.499 L402.789,624.467 L402.813,624.407 C402.936,623.94 402.798,624.047 403.01,623.923 C403.043,623.842 403.013,623.896 403.169,623.83 L403.464,623.658 L403.534,623.676 L403.596,623.65 L403.886,623.769 C404.078,623.819 404.034,623.762 404.085,623.85 C404.306,623.94 404.159,623.856 404.341,624.288 L404.378,624.352 L404.378,624.377 L404.412,624.458 L404.432,628.059 C406.724,626.492 405.816,627.285 407.281,625.831 C407.721,625.348 408.112,624.844 408.415,624.387 C408.617,624.072 408.527,624.221 408.688,623.942 L407.19,612.545 L407.09,612.545 L407.09,610.922 L501.68,610.922 L501.68,612.545 L501.62,612.545 L500.646,625.299 L500.646,625.299 C500.712,625.42 500.81,625.581 500.929,625.76 C501.233,626.217 501.624,626.721 502.064,627.205 C503.444,628.589 502.8,627.989 504.932,629.442 L504.932,625.835 L504.94,625.816 L504.94,625.725 L505.071,625.501 C505.178,625.243 505.09,625.294 505.224,625.239 C505.297,625.114 505.234,625.194 505.505,625.123 L505.744,625.023 L505.798,625.046 L505.854,625.031 L506.078,625.162 C506.336,625.269 506.285,625.181 506.34,625.315 C506.465,625.388 506.386,625.326 506.456,625.595 L506.556,625.835 L506.556,626.026 C506.763,630.011 509.133,633.276 512.729,634.875 L512.729,627.096 C512.729,626.648 513.093,626.285 513.541,626.285 C514.205,626.559 514.036,626.331 514.227,626.792 C514.768,627.058 514.54,626.841 514.783,627.554 C514.782,627.566 514.782,627.566 514.778,627.661 C514.758,628.266 514.786,629.073 514.905,630.006 C515.082,631.399 515.427,632.771 515.977,634.047 C516.975,636.609 518.95,638.169 521.28,639.421 L521.28,631.587 L521.372,631.366 C521.426,631.104 521.354,631.174 521.487,631.087 C521.548,630.94 521.493,631.023 521.739,630.922 L521.94,630.79 L522.018,630.806 L522.092,630.776 L522.314,630.867 C522.575,630.922 522.505,630.849 522.592,630.983 C522.74,631.044 522.656,630.989 522.758,631.236 L522.889,631.436 C524.44,636.643 527.017,642.146 531.323,645.642 L530.906,599.34 C525.508,587.733 514.19,583.552 502.717,589.23 L502.715,589.23 C495.598,593.927 488.595,596.048 480.11,594.419 C479.169,594.239 478.319,593.738 477.424,593.398 C469.795,589.619 467.66,580.369 472.496,567.233 L472.751,566.937 C473.336,565.416 474.906,564.896 476.323,564.456 C478.931,564.707 477.81,564.457 479.723,565.028 C480.855,565.432 482.042,566.021 483.285,566.762 C483.886,567.12 484.474,567.497 485.085,567.911 C485.204,567.992 485.322,568.073 485.44,568.155 C485.442,568.156 485.444,568.157 485.446,568.158 L485.446,560.18 L485.302,559.698 C483.056,553.634 475.359,553.68 470.458,556.282 L470.467,556.294 L469.148,557.242 L468.675,556.582 L462.994,548.67 z" fill="#212121"/>
            <path d="M462.994,548.67 L433.062,566.804 C439.745,576.262 445.364,589.152 432.839,596.44 C424.215,600.455 413.03,598.79 406.305,591.925 C401.911,588.79 396.063,588.682 390.884,589.024 C385.21,589.617 379.77,591.848 378.439,597.847 L378.023,644.081 C382.188,640.556 384.983,635.256 386.456,630.059 C386.542,629.619 386.968,629.332 387.408,629.417 C387.848,629.503 388.135,629.93 388.05,630.37 L388.016,630.489 L388.065,630.605 L388.065,638.188 C390.87,637.312 392.462,634.91 393.772,632.484 C394.329,631.166 394.678,629.748 394.858,628.309 C394.978,627.345 395.007,626.511 394.986,625.885 C394.982,625.786 394.982,625.786 394.981,625.774 L394.991,625.745 L394.991,625.723 L395.035,625.619 C395.187,625.173 395.046,625.253 395.222,625.167 C395.255,625.086 395.223,625.152 395.419,625.071 L395.74,624.913 L395.773,624.924 L395.803,624.911 L396.124,625.044 C396.335,625.116 396.297,625.049 396.338,625.133 C396.517,625.207 396.372,625.136 396.55,625.567 L396.602,625.672 L396.603,625.694 L396.615,625.723 L396.615,633.501 C400.173,632.211 402.698,628.265 402.77,624.572 L402.789,624.499 L402.789,624.467 L402.813,624.407 C402.936,623.94 402.798,624.047 403.01,623.923 C403.043,623.842 403.013,623.896 403.169,623.83 L403.464,623.658 L403.534,623.676 L403.596,623.65 L403.886,623.769 C404.078,623.819 404.034,623.762 404.085,623.85 C404.306,623.94 404.159,623.856 404.341,624.288 L404.378,624.352 L404.378,624.377 L404.412,624.458 L404.432,628.059 C406.724,626.492 405.816,627.285 407.281,625.831 C407.721,625.348 408.112,624.844 408.415,624.387 C408.617,624.072 408.527,624.221 408.688,623.942 L407.19,612.545 L407.09,612.545 L407.09,610.922 L501.68,610.922 L501.68,612.545 L501.62,612.545 L500.646,625.299 L500.646,625.299 C500.712,625.42 500.81,625.581 500.929,625.76 C501.233,626.217 501.624,626.721 502.064,627.205 C503.444,628.589 502.8,627.989 504.932,629.442 L504.932,625.835 L504.94,625.816 L504.94,625.725 L505.071,625.501 C505.178,625.243 505.09,625.294 505.224,625.239 C505.297,625.114 505.234,625.194 505.505,625.123 L505.744,625.023 L505.798,625.046 L505.854,625.031 L506.078,625.162 C506.336,625.269 506.285,625.181 506.34,625.315 C506.465,625.388 506.386,625.326 506.456,625.595 L506.556,625.835 L506.556,626.026 C506.763,630.011 509.133,633.276 512.729,634.875 L512.729,627.096 C512.729,626.648 513.093,626.285 513.541,626.285 C514.205,626.559 514.036,626.331 514.227,626.792 C514.768,627.058 514.54,626.841 514.783,627.554 C514.782,627.566 514.782,627.566 514.778,627.661 C514.758,628.266 514.786,629.073 514.905,630.006 C515.082,631.399 515.427,632.771 515.977,634.047 C516.975,636.609 518.95,638.169 521.28,639.421 L521.28,631.587 L521.372,631.366 C521.426,631.104 521.354,631.174 521.487,631.087 C521.548,630.94 521.493,631.023 521.739,630.922 L521.94,630.79 L522.018,630.806 L522.092,630.776 L522.314,630.867 C522.575,630.922 522.505,630.849 522.592,630.983 C522.74,631.044 522.656,630.989 522.758,631.236 L522.889,631.436 C524.44,636.643 527.017,642.146 531.323,645.642 L530.906,599.34 C525.508,587.733 514.19,583.552 502.717,589.23 L502.715,589.23 C495.598,593.927 488.595,596.048 480.11,594.419 C479.169,594.239 478.319,593.738 477.424,593.398 C469.795,589.619 467.66,580.369 472.496,567.233 L472.751,566.937 C473.336,565.416 474.906,564.896 476.323,564.456 C478.931,564.707 477.81,564.457 479.723,565.028 C480.855,565.432 482.042,566.021 483.285,566.762 C483.886,567.12 484.474,567.497 485.085,567.911 C485.204,567.992 485.322,568.073 485.44,568.155 C485.442,568.156 485.444,568.157 485.446,568.158 L485.446,560.18 L485.302,559.698 C483.056,553.634 475.359,553.68 470.458,556.282 L470.467,556.294 L469.148,557.242 L468.675,556.582 L462.994,548.67 z" fill-opacity="0" stroke="#212121" stroke-width="24" stroke-linecap="round" stroke-miterlimit="2"/>
          </g>
          <g>
            <path d="M463.243,556.371 C455.489,613.773 494.941,598.597 505.184,594.325 C515.424,590.086 524.127,592.572 520.017,605.512 C515.924,607.191 513.31,606.396 513.31,606.396 C511.745,605.746 511.335,604.941 511.951,604.172 C521.625,599.876 513.709,597.161 510.023,597.626 C477.981,611.537 455.113,606.619 457.185,571.199 L452.13,571.199 C455.55,607.45 431.366,613.949 399.323,600.038 C395.638,599.573 387.721,602.288 397.395,606.584 C398.011,607.353 397.601,608.158 396.036,608.808 C396.036,608.808 393.423,609.604 389.33,607.924 C385.219,594.984 393.922,592.498 404.163,596.737 C413.297,601.406 457.582,616.244 442.843,568.398 L463.243,556.371 z" fill="#212121"/>
            <path d="M463.243,556.371 C455.489,613.773 494.941,598.597 505.184,594.325 C515.424,590.086 524.127,592.572 520.017,605.512 C515.924,607.191 513.31,606.396 513.31,606.396 C511.745,605.746 511.335,604.941 511.951,604.172 C521.625,599.876 513.709,597.161 510.023,597.626 C477.981,611.537 455.113,606.619 457.185,571.199 L452.13,571.199 C455.55,607.45 431.366,613.949 399.323,600.038 C395.638,599.573 387.721,602.288 397.395,606.584 C398.011,607.353 397.601,608.158 396.036,608.808 C396.036,608.808 393.423,609.604 389.33,607.924 C385.219,594.984 393.922,592.498 404.163,596.737 C413.297,601.406 457.582,616.244 442.843,568.398 L463.243,556.371 z" fill-opacity="0" stroke="#212121" stroke-width="24" stroke-linecap="round" stroke-miterlimit="2"/>
          </g>
          <g>
            <g>
              <path d="M410.792,626.566 L419.745,643.918 C419.745,643.918 419.738,649.447 412.539,651.631 L411.853,643.45 C411.853,643.45 412.179,655.567 406.469,657.683 L403.682,650.3 C403.683,650.301 405.683,660.439 398.147,664.584 L398.147,653.595 C397.207,659.9 396.943,664.873 389.626,669.885 L388.977,653.595 C387.566,662.235 383.404,674.312 377.3,675.872 L377.3,651.127 C377.3,651.127 407.458,634.325 410.792,626.566 z" fill="#212121"/>
              <path d="M410.792,626.566 L419.745,643.918 C419.745,643.918 419.738,649.447 412.539,651.631 L411.853,643.45 C411.853,643.45 412.179,655.567 406.469,657.683 L403.682,650.3 C403.683,650.301 405.683,660.439 398.147,664.584 L398.147,653.595 C397.207,659.9 396.943,664.873 389.626,669.885 L388.977,653.595 C387.566,662.235 383.404,674.312 377.3,675.872 L377.3,651.127 C377.3,651.127 407.458,634.325 410.792,626.566 z" fill-opacity="0" stroke="#212121" stroke-width="24" stroke-linecap="round" stroke-miterlimit="2"/>
            </g>
            <g>
              <path d="M498.137,626.566 L489.184,643.918 C489.184,643.918 489.191,649.447 496.39,651.631 L497.077,643.45 C497.077,643.45 496.75,655.567 502.46,657.683 L505.247,650.3 C505.247,650.301 503.246,660.439 510.782,664.584 L510.782,653.595 C511.722,659.9 511.986,664.873 519.303,669.885 L519.952,653.595 C521.364,662.235 525.525,674.312 531.629,675.872 L531.629,651.127 C531.629,651.127 501.471,634.325 498.137,626.566 z" fill="#212121"/>
              <path d="M498.137,626.566 L489.184,643.918 C489.184,643.918 489.191,649.447 496.39,651.631 L497.077,643.45 C497.077,643.45 496.75,655.567 502.46,657.683 L505.247,650.3 C505.247,650.301 503.246,660.439 510.782,664.584 L510.782,653.595 C511.722,659.9 511.986,664.873 519.303,669.885 L519.952,653.595 C521.364,662.235 525.525,674.312 531.629,675.872 L531.629,651.127 C531.629,651.127 501.471,634.325 498.137,626.566 z" fill-opacity="0" stroke="#212121" stroke-width="24" stroke-linecap="round" stroke-miterlimit="2"/>
            </g>
          </g>
          <g>
            <path d="M419.011,634.14 L491.865,632.571" fill="#212121"/>
            <path d="M419.011,634.14 L491.865,632.571" fill-opacity="0" stroke="#212121" stroke-width="24" stroke-linecap="round" stroke-miterlimit="2"/>
          </g>
          <g>
            <path d="M410.699,615.843 L497.902,614.658" fill="#212121"/>
            <path d="M410.699,615.843 L497.902,614.658" fill-opacity="0" stroke="#212121" stroke-width="24" stroke-linecap="round" stroke-miterlimit="2"/>
          </g>
          <g>
            <path d="M406.863,611.996 L431.266,660.558 L455.669,709.121 L478.868,659.972 L502.066,610.823 L454.465,611.409 z" fill="#212121"/>
            <path d="M406.863,611.996 L431.266,660.558 L455.669,709.121 L478.868,659.972 L502.066,610.823 L454.465,611.409 z" fill-opacity="0" stroke="#212121" stroke-width="24" stroke-linecap="round" stroke-miterlimit="2"/>
          </g>
          <g>
            <g>
              <g>
                <path d="M438.083,671.312 L453.474,641.643" fill="#212121"/>
                <path d="M438.083,671.312 L453.474,641.643" fill-opacity="0" stroke="#212121" stroke-width="24" stroke-linecap="round" stroke-miterlimit="2"/>
              </g>
              <g>
                <path d="M471.296,671.232 L455.377,641.572" fill="#212121"/>
                <path d="M471.296,671.232 L455.377,641.572" fill-opacity="0" stroke="#212121" stroke-width="24" stroke-linecap="round" stroke-miterlimit="2"/>
              </g>
              <g>
                <path d="M449.733,643.732 L459.309,643.691" fill="#212121"/>
                <path d="M449.733,643.732 L459.309,643.691" fill-opacity="0" stroke="#212121" stroke-width="24" stroke-linecap="round" stroke-miterlimit="2"/>
              </g>
            </g>
            <g>
              <path d="M441.671,664.726 L467.297,664.616" fill="#212121"/>
              <path d="M441.671,664.726 L467.297,664.616" fill-opacity="0" stroke="#212121" stroke-width="24" stroke-linecap="round" stroke-miterlimit="2"/>
            </g>
          </g>
          <g>
            <path d="M385.747,608.044 C386.589,610.912 388.645,612.367 391.543,612.659 C393.877,612.579 395.941,611.368 396.857,609.19 C397.084,609.729 396.921,609.297 397.049,610.564 C397.049,613.871 394.368,616.552 391.061,616.552 C387.754,616.552 385.073,613.871 385.073,610.564 C385.242,608.884 385.038,609.729 385.747,608.044 z" fill="#212121"/>
            <path d="M385.747,608.044 C386.589,610.912 388.645,612.367 391.543,612.659 C393.877,612.579 395.941,611.368 396.857,609.19 C397.084,609.729 396.921,609.297 397.049,610.564 C397.049,613.871 394.368,616.552 391.061,616.552 C387.754,616.552 385.073,613.871 385.073,610.564 C385.242,608.884 385.038,609.729 385.747,608.044 z" fill-opacity="0" stroke="#212121" stroke-width="24" stroke-linecap="round" stroke-miterlimit="2"/>
          </g>
          <g>
            <path d="M524.363,607.817 C523.774,610.748 521.852,612.376 518.991,612.919 C516.659,613.043 514.497,612.017 513.395,609.927 C513.216,610.484 513.341,610.039 513.324,611.312 C513.612,614.607 516.516,617.044 519.811,616.755 C523.105,616.467 525.542,613.563 525.254,610.268 C524.939,608.61 525.216,609.434 524.363,607.817 z" fill="#212121"/>
            <path d="M524.363,607.817 C523.774,610.748 521.852,612.376 518.991,612.919 C516.659,613.043 514.497,612.017 513.395,609.927 C513.216,610.484 513.341,610.039 513.324,611.312 C513.612,614.607 516.516,617.044 519.811,616.755 C523.105,616.467 525.542,613.563 525.254,610.268 C524.939,608.61 525.216,609.434 524.363,607.817 z" fill-opacity="0" stroke="#212121" stroke-width="24" stroke-linecap="round" stroke-miterlimit="2"/>
          </g>
        </g>
      </g>
      <g>
        <path d="M406.363,612.854 L430.766,661.416 L455.169,709.979 L478.368,660.83 L501.566,611.68 L453.965,612.267 z" fill="#0A0405"/>
        <path d="M406.59,612.045 L418.511,633.64 L489.527,633.64 L501.12,612.045 L406.59,612.045" fill="#FFFFFF"/>
        <g>
          <g>
            <path d="M437.697,679.25 C440.861,698.118 421.988,698.384 421.988,698.384 C421.988,698.384 422.096,698.379 421.963,698.384 C408.016,698.932 405.654,711.44 408.569,716.7 C415.657,718.683 424.69,712.391 422.623,699.097 C422.602,698.965 422.616,699.072 422.616,699.072 C422.616,699.072 417.954,681.077 436.998,679.25" fill-opacity="0" stroke="#FFFFFF" stroke-width="2" stroke-linecap="round" stroke-linejoin="round"/>
            <path d="M471.682,679.25 C468.519,698.118 487.391,698.384 487.391,698.384 C487.391,698.384 487.284,698.379 487.416,698.384 C501.363,698.932 503.725,711.44 500.81,716.7 C493.722,718.683 484.689,712.391 486.757,699.097 C486.777,698.965 486.763,699.072 486.763,699.072 C486.763,699.072 491.425,681.077 472.381,679.25" fill-opacity="0" stroke="#FFFFFF" stroke-width="2" stroke-linecap="round" stroke-linejoin="round"/>
          </g>
          <g>
            <path d="M420.208,648.335 C411.486,664.552 377.581,679.087 377.581,679.087 L377.581,708.621 C383.955,706.232 387.761,691.211 388.136,686.597 L388.136,701.719 C395.008,700.049 395.322,684.056 394.733,681.726 L396.459,698.472 C403.948,696.133 402.853,680.609 402.853,680.609 L405.39,692.382 C410.249,692.507 409.551,670.765 409.551,670.765 L410.363,686.597 C418.759,685.017 415.945,666.198 415.945,666.198 L418.787,679.087 C422.653,676.982 422.136,662.239 422.136,662.239 L427.819,665.487 L429.443,664.574 L420.208,648.335" fill="#FFFFFF"/>
            <path d="M487.722,648.335 C496.443,664.552 530.348,679.087 530.348,679.087 L530.348,708.621 C523.975,706.232 520.169,691.211 519.793,686.597 L519.793,701.719 C512.922,700.049 512.608,684.056 513.196,681.726 L511.471,698.472 C503.981,696.133 505.077,680.609 505.077,680.609 L502.539,692.382 C497.68,692.507 498.378,670.765 498.378,670.765 L497.566,686.597 C489.17,685.017 491.984,666.198 491.984,666.198 L489.143,679.087 C485.277,676.982 485.793,662.239 485.793,662.239 L480.11,665.487 L478.486,664.574 L487.722,648.335" fill="#FFFFFF"/>
          </g>
          <g>
            <g>
              <path d="M426.615,732.516 C429.578,715.198 444.868,710.116 453.069,711.744 C450.106,729.063 434.815,734.144 426.615,732.516" fill-opacity="0" stroke="#FFFFFF" stroke-width="2" stroke-linecap="round" stroke-linejoin="round"/>
              <path d="M482.314,733.232 C479.797,715.844 464.643,710.371 456.403,711.787 C458.92,729.176 474.075,734.649 482.314,733.232" fill-opacity="0" stroke="#FFFFFF" stroke-width="2" stroke-linecap="round" stroke-linejoin="round"/>
            </g>
            <path d="M453.931,748.67 C442.57,735.268 448.506,720.289 455.024,715.053 C466.386,728.455 460.45,743.434 453.931,748.67" fill-opacity="0" stroke="#FFFFFF" stroke-width="2" stroke-linecap="round" stroke-linejoin="round"/>
          </g>
          <path d="M462.494,548.17 L432.562,566.304 C439.245,575.762 444.864,588.652 432.339,595.94 C423.715,599.955 412.53,598.29 405.805,591.425 C401.411,588.29 395.563,588.182 390.384,588.524 C384.71,589.117 379.27,591.348 377.939,597.347 L377.523,643.581 C381.688,640.056 384.483,634.756 385.956,629.559 C386.042,629.119 386.468,628.832 386.908,628.917 C387.348,629.003 387.635,629.43 387.55,629.87 L387.516,629.989 L387.565,630.105 L387.565,637.688 C390.37,636.812 391.962,634.41 393.272,631.984 C393.829,630.666 394.178,629.248 394.358,627.809 C394.478,626.845 394.507,626.011 394.486,625.385 C394.482,625.286 394.482,625.286 394.481,625.274 L394.491,625.245 L394.491,625.223 L394.535,625.119 C394.687,624.673 394.546,624.753 394.722,624.667 C394.755,624.586 394.723,624.652 394.919,624.571 L395.24,624.413 L395.273,624.424 L395.303,624.411 L395.624,624.544 C395.835,624.616 395.797,624.549 395.838,624.633 C396.017,624.707 395.872,624.636 396.05,625.067 L396.102,625.172 L396.103,625.194 L396.115,625.223 L396.115,633.001 C399.673,631.711 402.198,627.765 402.27,624.072 L402.289,623.999 L402.289,623.967 L402.313,623.907 C402.436,623.44 402.298,623.547 402.51,623.423 C402.543,623.342 402.513,623.396 402.669,623.33 L402.964,623.158 L403.034,623.176 L403.096,623.15 L403.386,623.269 C403.578,623.319 403.534,623.262 403.585,623.35 C403.806,623.44 403.659,623.356 403.841,623.788 L403.878,623.852 L403.878,623.877 L403.912,623.958 L403.932,627.559 C406.224,625.992 405.316,626.785 406.781,625.331 C407.221,624.848 407.612,624.344 407.915,623.887 C408.117,623.572 408.027,623.721 408.188,623.442 L406.69,612.045 L406.59,612.045 L406.59,610.422 L501.18,610.422 L501.18,612.045 L501.12,612.045 L500.146,624.799 L500.146,624.799 C500.212,624.92 500.31,625.081 500.429,625.26 C500.733,625.717 501.124,626.221 501.564,626.705 C502.944,628.089 502.3,627.489 504.432,628.942 L504.432,625.335 L504.44,625.316 L504.44,625.225 L504.571,625.001 C504.678,624.743 504.59,624.794 504.724,624.739 C504.797,624.614 504.734,624.694 505.005,624.623 L505.244,624.523 L505.298,624.546 L505.354,624.531 L505.578,624.662 C505.836,624.769 505.785,624.681 505.84,624.815 C505.965,624.888 505.886,624.826 505.956,625.095 L506.056,625.335 L506.056,625.526 C506.263,629.511 508.633,632.776 512.229,634.375 L512.229,626.596 C512.229,626.148 512.593,625.785 513.041,625.785 C513.705,626.059 513.536,625.831 513.727,626.292 C514.268,626.558 514.04,626.341 514.283,627.054 C514.282,627.066 514.282,627.066 514.278,627.161 C514.258,627.766 514.286,628.573 514.405,629.506 C514.582,630.899 514.927,632.271 515.477,633.547 C516.475,636.109 518.45,637.669 520.78,638.921 L520.78,631.087 L520.872,630.866 C520.926,630.604 520.854,630.674 520.987,630.587 C521.048,630.44 520.993,630.523 521.239,630.422 L521.44,630.29 L521.518,630.306 L521.592,630.276 L521.814,630.367 C522.075,630.422 522.005,630.349 522.092,630.483 C522.24,630.544 522.156,630.489 522.258,630.736 L522.389,630.936 C523.94,636.143 526.517,641.646 530.823,645.142 L530.406,598.84 C525.008,587.233 513.69,583.052 502.217,588.73 L502.215,588.73 C495.098,593.427 488.095,595.548 479.61,593.919 C478.669,593.739 477.819,593.238 476.924,592.898 C469.295,589.119 467.16,579.869 471.996,566.733 L472.251,566.437 C472.836,564.916 474.406,564.396 475.823,563.956 C478.431,564.207 477.31,563.957 479.223,564.528 C480.355,564.932 481.542,565.521 482.785,566.262 C483.386,566.62 483.974,566.997 484.585,567.411 C484.704,567.492 484.822,567.573 484.94,567.655 C484.942,567.656 484.944,567.657 484.946,567.658 L484.946,559.68 L484.802,559.198 C482.556,553.134 474.859,553.18 469.958,555.782 L469.967,555.794 L468.648,556.742 L468.175,556.082 L462.494,548.17 z" fill="#FFFFFF"/>
          <path d="M462.743,555.871 C454.989,613.273 494.441,598.097 504.684,593.825 C514.924,589.586 523.627,592.072 519.517,605.012 C515.424,606.691 512.81,605.896 512.81,605.896 C511.245,605.246 510.835,604.441 511.451,603.672 C521.125,599.376 513.209,596.661 509.523,597.126 C477.481,611.037 454.613,606.119 456.685,570.699 L451.63,570.699 C455.05,606.95 430.866,613.449 398.823,599.538 C395.138,599.073 387.221,601.788 396.895,606.084 C397.511,606.853 397.101,607.658 395.536,608.308 C395.536,608.308 392.923,609.104 388.83,607.424 C384.719,594.484 393.422,591.998 403.663,596.237 C412.797,600.906 457.082,615.744 442.343,567.898 L462.743,555.871 z" fill="#0A0405"/>
          <g>
            <path d="M410.292,626.066 L419.245,643.418 C419.245,643.418 419.238,648.947 412.039,651.131 L411.353,642.95 C411.353,642.95 411.679,655.067 405.969,657.183 L403.182,649.8 C403.183,649.801 405.183,659.939 397.647,664.084 L397.647,653.095 C396.707,659.4 396.443,664.373 389.126,669.385 L388.477,653.095 C387.066,661.735 382.904,673.812 376.8,675.372 L376.8,650.627 C376.8,650.627 406.958,633.825 410.292,626.066 z" fill="#FFFFFF"/>
            <path d="M497.637,626.066 L488.684,643.418 C488.684,643.418 488.691,648.947 495.89,651.131 L496.577,642.95 C496.577,642.95 496.25,655.067 501.96,657.183 L504.747,649.8 C504.747,649.801 502.746,659.939 510.282,664.084 L510.282,653.095 C511.222,659.4 511.486,664.373 518.803,669.385 L519.452,653.095 C520.864,661.735 525.025,673.812 531.129,675.372 L531.129,650.627 C531.129,650.627 500.971,633.825 497.637,626.066 z" fill="#FFFFFF"/>
          </g>
          <path d="M419.011,634.14 L491.865,632.571" fill-opacity="0" stroke="#2F36A3" stroke-width="5"/>
          <path d="M410.699,615.843 L497.902,614.658" fill-opacity="0" stroke="#2F36A3" stroke-width="5"/>
          <path d="M406.863,611.996 L431.266,660.558 L455.669,709.121 L478.868,659.972 L502.066,610.823 L454.465,611.409 z" fill-opacity="0" stroke="#F15B0F" stroke-width="5"/>
          <g>
            <g>
              <path d="M438.083,671.312 L453.474,641.643" fill-opacity="0" stroke="#F15B0F" stroke-width="5"/>
              <path d="M471.296,671.232 L455.377,641.572" fill-opacity="0" stroke="#F15B0F" stroke-width="5"/>
              <path d="M449.733,643.732 L459.309,643.691" fill-opacity="0" stroke="#F15B0F" stroke-width="5"/>
            </g>
            <path d="M441.671,664.726 L467.297,664.616" fill-opacity="0" stroke="#F15B0F" stroke-width="5"/>
          </g>
          <g>
            <path d="M385.747,608.044 C386.589,610.912 388.645,612.367 391.543,612.659 C393.877,612.579 395.941,611.368 396.857,609.19 C397.084,609.729 396.921,609.297 397.049,610.564 C397.049,613.871 394.368,616.552 391.061,616.552 C387.754,616.552 385.073,613.871 385.073,610.564 C385.242,608.884 385.038,609.729 385.747,608.044 z" fill="#0A0405"/>
            <path d="M385.747,608.044 C386.589,610.912 388.645,612.367 391.543,612.659 C393.877,612.579 395.941,611.368 396.857,609.19 C397.084,609.729 396.921,609.297 397.049,610.564 C397.049,613.871 394.368,616.552 391.061,616.552 C387.754,616.552 385.073,613.871 385.073,610.564 C385.242,608.884 385.038,609.729 385.747,608.044 z" fill-opacity="0" stroke="#C3C2C2" stroke-width="0.25" stroke-opacity="0.001"/>
          </g>
          <g>
            <path d="M524.363,607.817 C523.774,610.748 521.852,612.376 518.991,612.919 C516.659,613.043 514.497,612.017 513.395,609.927 C513.216,610.484 513.341,610.039 513.324,611.312 C513.612,614.607 516.516,617.044 519.811,616.755 C523.105,616.467 525.542,613.563 525.254,610.268 C524.939,608.61 525.216,609.434 524.363,607.817 z" fill="#0A0405"/>
            <path d="M524.363,607.817 C523.774,610.748 521.852,612.376 518.991,612.919 C516.659,613.043 514.497,612.017 513.395,609.927 C513.216,610.484 513.341,610.039 513.324,611.312 C513.612,614.607 516.516,617.044 519.811,616.755 C523.105,616.467 525.542,613.563 525.254,610.268 C524.939,608.61 525.216,609.434 524.363,607.817 z" fill-opacity="0" stroke="#C3C2C2" stroke-width="0.25" stroke-opacity="0.001"/>
          </g>
        </g>
      </g>
    </g>
  </g>
</svg>
