<?xml version="1.0" encoding="UTF-8" standalone="no"?>
<!-- Created with Inkscape (http://www.inkscape.org/) -->

<svg
   xmlns:dc="http://purl.org/dc/elements/1.1/"
   xmlns:cc="http://creativecommons.org/ns#"
   xmlns:rdf="http://www.w3.org/1999/02/22-rdf-syntax-ns#"
   xmlns:svg="http://www.w3.org/2000/svg"
   xmlns="http://www.w3.org/2000/svg"
   xmlns:xlink="http://www.w3.org/1999/xlink"
   xmlns:sodipodi="http://sodipodi.sourceforge.net/DTD/sodipodi-0.dtd"
   xmlns:inkscape="http://www.inkscape.org/namespaces/inkscape"
   width="40"
   height="40"
   viewBox="0 0 40 40.000001"
   id="svg3362"
   version="1.1"
   inkscape:version="0.91 r13725"
   sodipodi:docname="menu.svg">
  <defs
     id="defs3364">
    <linearGradient
       inkscape:collect="always"
       id="linearGradient4329">
      <stop
         style="stop-color:#a9d300;stop-opacity:1;"
         offset="0"
         id="stop4331" />
      <stop
         style="stop-color:#a9d300;stop-opacity:0;"
         offset="1"
         id="stop4333" />
    </linearGradient>
    <radialGradient
       inkscape:collect="always"
       xlink:href="#linearGradient4329"
       id="radialGradient4335"
       cx="-10.052038"
       cy="1035.8977"
       fx="-10.052038"
       fy="1035.8977"
       r="20"
       gradientTransform="translate(30.052038,-3.5355078)"
       gradientUnits="userSpaceOnUse" />
  </defs>
  <sodipodi:namedview
     id="base"
     pagecolor="#ffffff"
     bordercolor="#666666"
     borderopacity="1.0"
     inkscape:pageopacity="0.0"
     inkscape:pageshadow="2"
     inkscape:zoom="3.959798"
     inkscape:cx="24.846474"
     inkscape:cy="30.200632"
     inkscape:document-units="px"
     inkscape:current-layer="layer1"
     showgrid="false"
     units="px"
     inkscape:window-width="1366"
     inkscape:window-height="705"
     inkscape:window-x="-8"
     inkscape:window-y="-8"
     inkscape:window-maximized="1" />
  <metadata
     id="metadata3367">
    <rdf:RDF>
      <cc:Work
         rdf:about="">
        <dc:format>image/svg+xml</dc:format>
        <dc:type
           rdf:resource="http://purl.org/dc/dcmitype/StillImage" />
        <dc:title></dc:title>
      </cc:Work>
    </rdf:RDF>
  </metadata>
  <g
     inkscape:label="Layer 1"
     inkscape:groupmode="layer"
     id="layer1"
     transform="translate(0,-1012.3622)">
    <g
       id="g4337"
       style="opacity:0.7">
      <path
         id="path3370"
         transform="translate(0,1012.3622)"
         d="M 20 0 A 20 20 0 0 0 0 20 A 20 20 0 0 0 20 40 A 20 20 0 0 0 40 20 A 20 20 0 0 0 20 0 z M 10 14 L 30 14 L 30 16 L 10 16 L 10 14 z M 10 19 L 30 19 L 30 21 L 10 21 L 10 19 z M 10 24 L 30 24 L 30 26 L 10 26 L 10 24 z "
         style="opacity:1;fill:#88ab00;fill-opacity:1" />
      <path
         id="path3370-4"
         d="m 20,1012.3622 a 20,20 0 0 0 -20,20 20,20 0 0 0 20,20 20,20 0 0 0 20,-20 20,20 0 0 0 -20,-20 z m -10,14 20,0 0,2 -20,0 0,-2 z m 0,5 20,0 0,2 -20,0 0,-2 z m 0,5 20,0 0,2 -20,0 0,-2 z"
         style="opacity:1;fill:url(#radialGradient4335);fill-opacity:1;fill-rule:evenodd;stroke:none;stroke-opacity:1"
         inkscape:connector-curvature="0" />
    </g>
  </g>
</svg>
