<?xml version="1.0" encoding="UTF-8"?>
<!DOCTYPE svg PUBLIC "-//W3C//DTD SVG 1.1//EN" "http://www.w3.org/Graphics/SVG/1.1/DTD/svg11.dtd">
<svg version="1.1" xmlns="http://www.w3.org/2000/svg" xmlns:xlink="http://www.w3.org/1999/xlink" x="0" y="0" width="29.33" height="26.418" viewBox="0, 0, 419, 377.395">
  <g id="Capa_1" transform="translate(0, -20.803)">
    <path d="M381.675,20.803 C361.091,20.803 344.345,37.55 344.345,58.134 C344.345,62.953 345.296,67.762 347.117,72.219 L285.82,133.516 C270.265,121.95 251.007,115.096 230.178,115.096 C213.543,115.096 197.317,119.522 183.003,127.929 L144.491,83.705 C147.098,78.525 148.464,72.804 148.464,66.974 C148.464,46.394 131.719,29.651 111.137,29.651 C90.555,29.651 73.81,46.394 73.81,66.974 C73.81,87.558 90.555,104.305 111.137,104.305 C115.027,104.305 118.836,103.711 122.502,102.535 L160.585,146.264 C145.172,163.449 136.733,185.403 136.733,208.54 C136.733,217.813 138.109,226.982 140.827,235.845 L56.958,295.538 C51.065,291.871 44.344,289.948 37.328,289.948 C16.745,289.949 0,306.692 0,327.273 C0,347.857 16.745,364.603 37.328,364.603 C57.91,364.603 74.655,347.857 74.655,327.273 C74.655,324.518 74.352,321.787 73.751,319.114 L153.734,262.19 C164.043,276.828 178.425,288.304 194.931,295.062 L186.013,320.208 C167.04,321.942 152.101,337.988 152.101,357.378 C152.101,377.96 168.846,394.704 189.428,394.704 C210.01,394.704 226.756,377.96 226.756,357.378 C226.756,346.429 221.901,336.048 213.617,328.978 L223.285,301.718 C225.628,301.896 227.935,301.986 230.178,301.986 C242.147,301.986 253.788,299.737 264.835,295.295 L304.94,343.64 C302.165,348.949 300.711,354.841 300.711,360.867 C300.711,381.451 317.454,398.198 338.033,398.198 C358.618,398.198 375.365,381.451 375.365,360.867 C375.365,340.287 358.618,323.544 338.033,323.544 C334.342,323.544 330.715,324.083 327.211,325.15 L289.988,280.28 C311.422,262.436 323.62,236.55 323.62,208.542 C323.62,188.269 317.128,169.485 306.118,154.155 L367.586,92.687 C372.044,94.506 376.855,95.458 381.675,95.458 C402.256,95.458 419,78.715 419,58.135 C419,37.55 402.256,20.803 381.675,20.803 z M230.178,158.153 C257.962,158.153 280.566,180.757 280.566,208.541 C280.566,236.325 257.963,258.929 230.178,258.929 C202.393,258.929 179.788,236.325 179.788,208.541 C179.788,180.757 202.393,158.153 230.178,158.153 z" fill="#FFFFFF"/>
  </g>
</svg>
