<?xml version="1.0" encoding="UTF-8"?>
<!DOCTYPE svg PUBLIC "-//W3C//DTD SVG 1.1//EN" "http://www.w3.org/Graphics/SVG/1.1/DTD/svg11.dtd">
<svg version="1.1" xmlns="http://www.w3.org/2000/svg" xmlns:xlink="http://www.w3.org/1999/xlink" x="0" y="0" width="22.138" height="24.336" viewBox="0, 0, 368.968, 405.608">
  <g id="Capa_1" transform="translate(-18.32, 0)">
    <g>
      <path d="M18.32,0 L387.288,0 L387.288,405.608 L18.32,405.608 L18.32,0 z" fill="#FFFFFF"/>
      <path d="M64.875,289.16 L242.708,289.16 L242.708,327.102 L64.875,327.102 z" fill="#9D9D9D"/>
      <path d="M291.775,289.16 L332.987,289.16 L332.987,327.102 L291.775,327.102 z" fill="#9D9D9D"/>
      <path d="M64.875,243.363 L242.708,243.363 L242.708,281.301 L64.875,281.301 z" fill="#9D9D9D"/>
      <path d="M64.875,197.57 L242.708,197.57 L242.708,235.512 L64.875,235.512 z" fill="#9D9D9D"/>
      <path d="M291.775,243.363 L332.987,243.363 L332.987,281.301 L291.775,281.301 z" fill="#9D9D9D"/>
      <path d="M250.559,111.216 L283.925,111.216 L283.925,143.928 L250.559,143.928 z" fill="#9D9D9D"/>
      <path d="M291.775,111.216 L332.987,111.216 L332.987,143.928 L291.775,143.928 z" fill="#9D9D9D"/>
      <path d="M291.775,197.57 L332.987,197.57 L332.987,235.512 L291.775,235.512 z" fill="#9D9D9D"/>
      <path d="M291.775,151.779 L332.987,151.779 L332.987,189.721 L291.775,189.721 z" fill="#9D9D9D"/>
      <path d="M250.559,197.57 L283.925,197.57 L283.925,235.512 L250.559,235.512 z" fill="#9D9D9D"/>
      <path d="M250.559,289.16 L283.925,289.16 L283.925,327.102 L250.559,327.102 z" fill="#9D9D9D"/>
      <path d="M250.559,243.363 L283.925,243.363 L283.925,281.301 L250.559,281.301 z" fill="#9D9D9D"/>
      <path d="M64.875,151.779 L242.708,151.779 L242.708,189.721 L64.875,189.721 z" fill="#9D9D9D"/>
      <path d="M250.559,151.779 L283.925,151.779 L283.925,189.721 L250.559,189.721 z" fill="#9D9D9D"/>
      <path d="M64.875,143.929 L242.708,143.929 L242.708,111.217 L64.875,111.217 L64.875,143.929 z M222.178,114.56 C229.268,114.56 235.018,120.309 235.018,127.396 C235.018,134.485 229.276,140.23 222.178,140.23 C215.085,140.23 209.345,134.485 209.345,127.396 C209.344,120.309 215.085,114.56 222.178,114.56 z" fill="#9D9D9D"/>
      <path d="M250.559,334.953 L283.925,334.953 L283.925,372.895 L250.559,372.895 z" fill="#9D9D9D"/>
      <path d="M291.775,380.75 L332.987,380.75 L332.987,405.608 L291.775,405.608 z" fill="#9D9D9D"/>
      <path d="M340.838,243.363 L387.288,243.363 L387.288,281.301 L340.838,281.301 z" fill="#9D9D9D"/>
      <path d="M340.838,289.16 L387.288,289.16 L387.288,327.102 L340.838,327.102 z" fill="#9D9D9D"/>
      <path d="M340.838,197.57 L387.288,197.57 L387.288,235.512 L340.838,235.512 z" fill="#9D9D9D"/>
      <path d="M340.838,334.953 L387.288,334.953 L387.288,372.895 L340.838,372.895 z" fill="#9D9D9D"/>
      <path d="M291.775,334.953 L332.987,334.953 L332.987,372.895 L291.775,372.895 z" fill="#9D9D9D"/>
      <path d="M340.838,111.216 L387.288,111.216 L387.288,143.928 L340.838,143.928 z" fill="#9D9D9D"/>
      <path d="M340.838,151.779 L387.288,151.779 L387.288,189.721 L340.838,189.721 z" fill="#9D9D9D"/>
      <path d="M340.838,380.75 L387.288,380.75 L387.288,405.608 L340.838,405.608 z" fill="#9D9D9D"/>
      <path d="M18.32,380.75 L57.024,380.75 L57.024,405.608 L18.32,405.608 z" fill="#9D9D9D"/>
      <path d="M250.559,380.75 L283.925,380.75 L283.925,405.608 L250.559,405.608 z" fill="#9D9D9D"/>
      <path d="M18.32,151.779 L57.024,151.779 L57.024,189.721 L18.32,189.721 z" fill="#9D9D9D"/>
      <path d="M18.32,197.57 L57.024,197.57 L57.024,235.512 L18.32,235.512 z" fill="#9D9D9D"/>
      <path d="M57.024,111.216 L18.32,111.216 L18.32,143.928 L57.024,143.928 L57.024,111.216 z M40.772,138.992 L35.528,138.992 L35.528,120.624 L35.466,120.624 L31.048,122.724 L30.158,118.662 L36.329,115.801 L40.779,115.801 L40.779,138.992 L40.772,138.992 z" fill="#9D9D9D"/>
      <path d="M64.875,380.75 L242.708,380.75 L242.708,405.608 L64.875,405.608 z" fill="#9D9D9D"/>
      <path d="M18.32,243.363 L57.024,243.363 L57.024,281.301 L18.32,281.301 z" fill="#9D9D9D"/>
      <path d="M64.875,334.953 L242.708,334.953 L242.708,372.895 L64.875,372.895 z" fill="#9D9D9D"/>
      <path d="M18.32,334.953 L57.024,334.953 L57.024,372.895 L18.32,372.895 z" fill="#9D9D9D"/>
      <path d="M18.32,289.16 L57.024,289.16 L57.024,327.102 L18.32,327.102 z" fill="#9D9D9D"/>
      <path d="M18.32,0 L387.288,0 L387.288,105 L18.32,105 L18.32,0 z" fill="#9D9D9D"/>
      <path d="M18.32,0 L18.32,0 L18.32,5 L18.32,5 L18.32,0 z" fill="#9D9D9D"/>
    </g>
  </g>
</svg>
