<?xml version="1.0" encoding="UTF-8"?>
<!DOCTYPE svg PUBLIC "-//W3C//DTD SVG 1.1//EN" "http://www.w3.org/Graphics/SVG/1.1/DTD/svg11.dtd">
<svg version="1.1" xmlns="http://www.w3.org/2000/svg" xmlns:xlink="http://www.w3.org/1999/xlink" x="0" y="0" width="27.844" height="27.844" viewBox="0, 0, 92.813, 92.813">
  <g id="Layer_1" transform="translate(-233.187, -331.187)">
    <g>
      <g>
        <path d="M320.662,340.009 C320.662,338.089 319.099,336.526 317.178,336.526 L242.009,336.526 C240.088,336.526 238.525,338.089 238.525,340.009 L238.525,352.096 L320.662,352.096 L320.662,340.009" fill="#FFFFFF"/>
        <path d="M320.662,415.178 C320.662,417.099 319.099,418.661 317.178,418.661 L256.79,418.661 L256.79,357.434 L320.662,357.434 L320.662,415.178 z M251.452,418.661 L242.009,418.661 C240.088,418.661 238.525,417.099 238.525,415.178 L238.525,357.434 L251.452,357.434 L251.452,418.661 z M238.525,340.009 C238.525,338.089 240.088,336.526 242.009,336.526 L317.178,336.526 C319.099,336.526 320.662,338.089 320.662,340.009 L320.662,352.096 L238.525,352.096 L238.525,340.009 z M317.178,331.188 L242.009,331.188 C237.145,331.188 233.187,335.145 233.187,340.009 L233.187,415.178 C233.187,420.043 237.145,424 242.009,424 L317.178,424 C322.042,424 326,420.043 326,415.178 L326,340.009 C326,335.145 322.042,331.188 317.178,331.188" fill="#FFFFFF"/>
        <path d="M265.893,371.695 L308.886,371.695 C310.36,371.695 311.555,370.501 311.555,369.027 C311.555,367.552 310.36,366.357 308.886,366.357 L265.893,366.357 C264.419,366.357 263.224,367.552 263.224,369.027 C263.224,370.501 264.419,371.695 265.893,371.695" fill="#FFFFFF"/>
        <path d="M265.893,384.511 L308.886,384.511 C310.36,384.511 311.555,383.316 311.555,381.842 C311.555,380.368 310.36,379.173 308.886,379.173 L265.893,379.173 C264.419,379.173 263.224,380.368 263.224,381.842 C263.224,383.316 264.419,384.511 265.893,384.511" fill="#FFFFFF"/>
        <path d="M265.893,397.326 L308.886,397.326 C310.36,397.326 311.555,396.131 311.555,394.657 C311.555,393.183 310.36,391.988 308.886,391.988 L265.893,391.988 C264.419,391.988 263.224,393.183 263.224,394.657 C263.224,396.131 264.419,397.326 265.893,397.326" fill="#FFFFFF"/>
        <path d="M265.893,406.035 L289.87,406.035 C291.344,406.035 292.539,404.84 292.539,403.366 C292.539,401.892 291.344,400.697 289.87,400.697 L265.893,400.697 C264.419,400.697 263.224,401.892 263.224,403.366 C263.224,404.84 264.419,406.035 265.893,406.035" fill="#FFFFFF"/>
      </g>
    </g>
  </g>
</svg>
