<?xml version="1.0" encoding="UTF-8"?>
<!DOCTYPE svg PUBLIC "-//W3C//DTD SVG 1.1//EN" "http://www.w3.org/Graphics/SVG/1.1/DTD/svg11.dtd">
<svg version="1.1" xmlns="http://www.w3.org/2000/svg" xmlns:xlink="http://www.w3.org/1999/xlink" x="0" y="0" width="100" height="40.943" viewBox="0, 0, 100, 40.943">
  <g id="Capa_1">
    <g>
      <g>
        <path d="M47.509,25.242 C47.996,28.147 45.09,28.188 45.09,28.188 C45.09,28.188 45.107,28.187 45.087,28.188 C42.939,28.272 42.575,30.198 43.024,31.007 C44.115,31.313 45.506,30.344 45.188,28.297 C45.185,28.277 45.187,28.294 45.187,28.294 C45.187,28.294 44.469,25.523 47.401,25.242" fill-opacity="0" stroke="#C3C2C2" stroke-width="0.5" stroke-linecap="round" stroke-linejoin="round"/>
        <path d="M52.741,25.242 C52.254,28.147 55.16,28.188 55.16,28.188 C55.16,28.188 55.143,28.187 55.163,28.188 C57.311,28.272 57.674,30.198 57.226,31.007 C56.134,31.313 54.744,30.344 55.062,28.297 C55.065,28.277 55.063,28.294 55.063,28.294 C55.063,28.294 55.781,25.523 52.849,25.242" fill-opacity="0" stroke="#C3C2C2" stroke-width="0.5" stroke-linecap="round" stroke-linejoin="round"/>
      </g>
      <g>
        <path d="M44.803,20.434 C43.46,22.931 38.24,25.169 38.24,25.169 L38.24,29.716 C39.221,29.348 39.807,27.035 39.865,26.325 L39.865,28.653 C40.923,28.396 40.971,25.934 40.881,25.575 L41.146,28.153 C42.3,27.793 42.131,25.403 42.131,25.403 L42.521,27.216 C43.27,27.235 43.162,23.887 43.162,23.887 L43.287,26.325 C44.58,26.082 44.147,23.184 44.147,23.184 L44.584,25.169 C45.179,24.845 45.1,22.575 45.1,22.575 L45.975,23.075 L46.225,22.934 L44.803,20.434" fill="#C3C2C2"/>
        <path d="M55.197,20.434 C56.54,22.931 61.76,25.169 61.76,25.169 L61.76,29.716 C60.779,29.348 60.193,27.035 60.135,26.325 L60.135,28.653 C59.077,28.396 59.029,25.934 59.119,25.575 L58.854,28.153 C57.7,27.793 57.869,25.403 57.869,25.403 L57.479,27.216 C56.73,27.235 56.838,23.887 56.838,23.887 L56.713,26.325 C55.42,26.082 55.853,23.184 55.853,23.184 L55.416,25.169 C54.821,24.845 54.9,22.575 54.9,22.575 L54.025,23.075 L53.775,22.934 L55.197,20.434" fill="#C3C2C2"/>
      </g>
      <g>
        <g>
          <path d="M45.837,33.442 C46.294,30.776 48.648,29.994 49.91,30.244 C49.454,32.911 47.1,33.693 45.837,33.442" fill-opacity="0" stroke="#C3C2C2" stroke-width="0.5" stroke-linecap="round" stroke-linejoin="round"/>
          <path d="M54.413,33.553 C54.025,30.876 51.692,30.033 50.423,30.251 C50.811,32.928 53.144,33.771 54.413,33.553" fill-opacity="0" stroke="#C3C2C2" stroke-width="0.5" stroke-linecap="round" stroke-linejoin="round"/>
        </g>
        <path d="M50.043,35.929 C48.294,33.866 49.208,31.56 50.211,30.754 C51.96,32.817 51.046,35.123 50.043,35.929" fill-opacity="0" stroke="#C3C2C2" stroke-width="0.5" stroke-linecap="round" stroke-linejoin="round"/>
      </g>
      <path d="M51.313,5.013 L46.705,7.805 C47.734,9.261 48.599,11.246 46.671,12.368 C45.343,12.986 43.621,12.73 42.585,11.673 C41.909,11.19 41.009,11.173 40.211,11.226 C39.338,11.317 38.5,11.661 38.295,12.584 L38.231,19.702 C38.872,19.16 39.303,18.344 39.529,17.544 C39.543,17.476 39.608,17.432 39.676,17.445 C39.744,17.458 39.788,17.524 39.775,17.591 L39.77,17.61 L39.777,17.628 L39.777,18.795 C40.209,18.66 40.454,18.29 40.656,17.917 C40.742,17.714 40.795,17.496 40.823,17.274 C40.841,17.126 40.846,16.997 40.843,16.901 C40.842,16.886 40.842,16.886 40.842,16.884 L40.844,16.88 L40.844,16.876 L40.85,16.86 C40.874,16.791 40.852,16.804 40.879,16.791 C40.884,16.778 40.879,16.788 40.909,16.776 L40.959,16.751 L40.964,16.753 L40.969,16.751 L41.018,16.772 C41.05,16.783 41.045,16.772 41.051,16.785 C41.078,16.797 41.056,16.786 41.084,16.852 L41.092,16.868 L41.092,16.872 L41.094,16.876 L41.094,18.074 C41.641,17.875 42.03,17.267 42.041,16.699 L42.044,16.688 L42.044,16.683 L42.048,16.673 C42.067,16.602 42.045,16.618 42.078,16.599 C42.083,16.587 42.078,16.595 42.103,16.585 L42.148,16.558 L42.159,16.561 L42.168,16.557 L42.213,16.575 C42.242,16.583 42.236,16.574 42.244,16.588 C42.278,16.602 42.255,16.589 42.283,16.655 L42.289,16.665 L42.289,16.669 L42.294,16.681 L42.297,17.236 C42.65,16.995 42.51,17.117 42.736,16.893 C42.803,16.818 42.863,16.741 42.91,16.67 C42.941,16.622 42.927,16.645 42.952,16.602 L42.722,14.847 L42.706,14.847 L42.706,14.597 L57.269,14.597 L57.269,14.847 L57.26,14.847 L57.11,16.811 L57.11,16.811 C57.12,16.829 57.135,16.854 57.154,16.882 C57.2,16.952 57.261,17.03 57.328,17.104 C57.541,17.317 57.442,17.225 57.77,17.449 L57.77,16.893 L57.771,16.89 L57.771,16.876 L57.791,16.842 C57.808,16.802 57.794,16.81 57.815,16.802 C57.826,16.782 57.816,16.795 57.858,16.784 L57.895,16.768 L57.903,16.772 L57.912,16.769 L57.946,16.79 C57.986,16.806 57.978,16.793 57.987,16.813 C58.006,16.824 57.994,16.815 58.005,16.856 L58.02,16.893 L58.02,16.923 C58.052,17.536 58.417,18.039 58.97,18.285 L58.97,17.088 C58.97,17.018 59.026,16.963 59.095,16.963 C59.198,17.005 59.172,16.97 59.201,17.041 C59.284,17.082 59.249,17.048 59.286,17.158 C59.286,17.16 59.286,17.16 59.286,17.174 C59.283,17.268 59.287,17.392 59.305,17.535 C59.333,17.75 59.386,17.961 59.47,18.158 C59.624,18.552 59.928,18.792 60.287,18.985 L60.287,17.779 L60.301,17.745 C60.309,17.705 60.298,17.715 60.319,17.702 C60.328,17.679 60.32,17.692 60.357,17.676 L60.388,17.656 L60.4,17.659 L60.412,17.654 L60.446,17.668 C60.486,17.676 60.475,17.665 60.489,17.686 C60.512,17.695 60.499,17.687 60.514,17.725 L60.535,17.756 C60.773,18.557 61.17,19.404 61.833,19.943 L61.769,12.814 C60.938,11.027 59.195,10.384 57.429,11.258 L57.429,11.258 C56.333,11.981 55.254,12.308 53.948,12.057 C53.803,12.029 53.673,11.952 53.535,11.899 C52.36,11.318 52.031,9.894 52.776,7.871 L52.815,7.826 C52.905,7.591 53.147,7.511 53.365,7.444 C53.767,7.482 53.594,7.444 53.889,7.532 C54.063,7.594 54.246,7.685 54.437,7.799 C54.53,7.854 54.62,7.912 54.714,7.976 C54.732,7.988 54.751,8.001 54.769,8.013 C54.769,8.013 54.769,8.014 54.77,8.014 L54.77,6.785 L54.748,6.711 C54.402,5.778 53.217,5.785 52.462,6.185 L52.464,6.187 L52.261,6.333 L52.188,6.232 L51.313,5.013 z" fill="#C3C2C2"/>
      <path d="M51.351,6.199 C50.158,15.036 56.232,12.7 57.809,12.042 C59.385,11.39 60.725,11.772 60.092,13.764 C59.462,14.023 59.06,13.901 59.06,13.901 C58.819,13.801 58.756,13.677 58.851,13.558 C60.34,12.897 59.121,12.479 58.554,12.55 C53.62,14.692 50.1,13.935 50.419,8.482 L49.64,8.482 C50.167,14.063 46.444,15.063 41.51,12.922 C40.943,12.85 39.724,13.268 41.214,13.93 C41.308,14.048 41.245,14.172 41.004,14.272 C41.004,14.272 40.602,14.394 39.972,14.136 C39.339,12.144 40.679,11.761 42.255,12.414 C43.662,13.132 50.48,15.417 48.211,8.051 L51.351,6.199 z" fill="#8B8B8B"/>
      <g>
        <path d="M43.276,17.006 L44.655,19.677 C44.655,19.677 44.654,20.528 43.545,20.865 L43.439,19.605 C43.439,19.605 43.49,21.471 42.611,21.796 L42.182,20.66 C42.182,20.66 42.49,22.221 41.329,22.859 L41.329,21.167 C41.185,22.138 41.144,22.903 40.018,23.675 L39.918,21.167 C39.7,22.497 39.06,24.357 38.12,24.597 L38.12,20.787 C38.12,20.787 42.763,18.2 43.276,17.006 z" fill="#C3C2C2"/>
        <path d="M56.724,17.006 L55.345,19.677 C55.345,19.677 55.346,20.528 56.455,20.865 L56.561,19.605 C56.561,19.605 56.51,21.471 57.389,21.796 L57.818,20.66 C57.818,20.66 57.51,22.221 58.671,22.859 L58.671,21.167 C58.815,22.138 58.856,22.903 59.982,23.675 L60.082,21.167 C60.3,22.497 60.94,24.357 61.88,24.597 L61.88,20.787 C61.88,20.787 57.237,18.2 56.724,17.006 z" fill="#C3C2C2"/>
      </g>
      <path d="M44.667,18.297 L55.883,18.055" fill-opacity="0" stroke="#8B8B8B" stroke-width="1.25"/>
      <path d="M43.387,15.48 L56.79,15.191" fill-opacity="0" stroke="#8B8B8B" stroke-width="1.25"/>
      <path d="M42.796,14.888 L46.553,22.364 L50.31,29.841 L53.882,22.274 L57.454,14.707 L50.125,14.797 z" fill-opacity="0" stroke="#6F6F6F" stroke-width="1.25"/>
      <g>
        <g>
          <path d="M47.603,24.02 L49.972,19.452" fill-opacity="0" stroke="#6F6F6F" stroke-width="1.25"/>
          <path d="M52.716,24.007 L50.265,19.441" fill-opacity="0" stroke="#6F6F6F" stroke-width="1.25"/>
          <path d="M49.397,19.774 L50.871,19.767" fill-opacity="0" stroke="#6F6F6F" stroke-width="1.25"/>
        </g>
        <path d="M48.155,23.006 L52.101,22.989" fill-opacity="0" stroke="#6F6F6F" stroke-width="1.25"/>
      </g>
      <g>
        <path d="M39.545,14.279 C39.675,14.721 39.992,14.945 40.438,14.99 C40.797,14.977 41.115,14.791 41.256,14.456 C41.291,14.539 41.266,14.472 41.285,14.667 C41.285,15.176 40.873,15.589 40.363,15.589 C39.854,15.589 39.442,15.176 39.442,14.667 C39.468,14.409 39.436,14.539 39.545,14.279 z" fill="#8B8B8B"/>
        <path d="M39.545,14.279 C39.675,14.721 39.992,14.945 40.438,14.99 C40.797,14.977 41.115,14.791 41.256,14.456 C41.291,14.539 41.266,14.472 41.285,14.667 C41.285,15.176 40.873,15.589 40.363,15.589 C39.854,15.589 39.442,15.176 39.442,14.667 C39.468,14.409 39.436,14.539 39.545,14.279 z" fill-opacity="0" stroke="#C3C2C2" stroke-width="0.063" stroke-opacity="0.001"/>
      </g>
      <g>
        <path d="M60.886,14.244 C60.796,14.696 60.5,14.946 60.059,15.03 C59.7,15.049 59.368,14.891 59.198,14.569 C59.17,14.655 59.189,14.586 59.187,14.782 C59.231,15.29 59.678,15.665 60.186,15.62 C60.693,15.576 61.068,15.129 61.024,14.622 C60.975,14.366 61.018,14.493 60.886,14.244 z" fill="#8B8B8B"/>
        <path d="M60.886,14.244 C60.796,14.696 60.5,14.946 60.059,15.03 C59.7,15.049 59.368,14.891 59.198,14.569 C59.17,14.655 59.189,14.586 59.187,14.782 C59.231,15.29 59.678,15.665 60.186,15.62 C60.693,15.576 61.068,15.129 61.024,14.622 C60.975,14.366 61.018,14.493 60.886,14.244 z" fill-opacity="0" stroke="#C3C2C2" stroke-width="0.063" stroke-opacity="0.001"/>
      </g>
    </g>
  </g>
</svg>
