<?xml version="1.0" encoding="UTF-8"?>
<!DOCTYPE svg PUBLIC "-//W3C//DTD SVG 1.1//EN" "http://www.w3.org/Graphics/SVG/1.1/DTD/svg11.dtd">
<svg version="1.1" xmlns="http://www.w3.org/2000/svg" xmlns:xlink="http://www.w3.org/1999/xlink" x="0" y="0" width="27.844" height="27.844" viewBox="0, 0, 92.813, 92.813">
  <g id="Layer_1" transform="translate(-496.187, -300.549)">
    <g>
      <g>
        <path d="M518.288,309.897 C518.62,316.978 520.542,336.502 531.567,345.617 C532.038,346.007 532.361,346.546 532.482,347.144 L534.515,357.169 L550.673,357.169 L552.705,347.144 C552.827,346.546 553.15,346.007 553.621,345.617 C564.646,336.502 566.568,316.979 566.898,309.897 L518.288,309.897" fill="#FFFFFF"/>
        <path d="M570.688,338.088 L565.839,338.088 C569.682,330.213 571.245,321.353 571.88,315.139 L581.466,315.139 C580.367,320.208 577.421,330.612 570.688,338.088 z M559.268,384.013 L525.919,384.013 C527.583,378.266 533.003,376.48 534.218,376.147 L550.968,376.147 C552.208,376.488 557.607,378.279 559.268,384.013 z M514.5,338.088 C507.786,330.632 504.831,320.214 503.725,315.139 L513.307,315.139 C513.94,321.353 515.505,330.213 519.348,338.088 L514.5,338.088 z M553.62,345.617 C553.15,346.007 552.827,346.546 552.705,347.144 L550.672,357.169 L534.515,357.169 L532.482,347.144 C532.361,346.546 532.038,346.007 531.567,345.617 C520.542,336.502 518.62,316.978 518.288,309.897 L566.898,309.897 C566.568,316.979 564.646,336.502 553.62,345.617 z M532.117,366.51 C532.117,364.302 533.914,362.507 536.122,362.507 L549.065,362.507 C551.273,362.507 553.068,364.302 553.068,366.51 L553.068,366.806 C553.068,369.013 551.273,370.809 549.065,370.809 L536.122,370.809 C533.914,370.809 532.117,369.013 532.117,366.806 L532.117,366.51 z M586.679,310.71 C586.172,310.132 585.44,309.801 584.672,309.801 L572.258,309.801 C572.315,308.324 572.307,307.389 572.305,307.19 C572.284,305.731 571.096,304.559 569.635,304.559 L515.552,304.559 C514.091,304.559 512.903,305.731 512.883,307.19 C512.88,307.389 512.872,308.324 512.929,309.801 L500.514,309.801 C499.746,309.801 499.014,310.132 498.508,310.71 C498.001,311.287 497.768,312.056 497.868,312.817 C497.966,313.563 500.393,331.217 511.423,342.613 C511.924,343.132 512.617,343.426 513.341,343.426 L522.456,343.426 C523.891,345.499 525.536,347.422 527.432,349.104 L529.607,359.825 C527.865,361.523 526.779,363.892 526.779,366.51 L526.779,366.806 C526.779,369.015 527.552,371.047 528.841,372.648 C528.25,372.975 527.633,373.357 527.012,373.802 C524.072,375.905 520.49,379.82 520.122,386.536 C520.083,387.268 520.346,387.984 520.849,388.517 C521.354,389.049 522.055,389.351 522.788,389.351 L562.4,389.351 C563.133,389.351 563.833,389.049 564.338,388.517 C564.841,387.984 565.104,387.268 565.065,386.536 C564.697,379.82 561.115,375.905 558.176,373.802 C557.554,373.357 556.937,372.975 556.346,372.648 C557.635,371.047 558.406,369.015 558.406,366.806 L558.406,366.51 C558.406,363.892 557.323,361.522 555.581,359.825 L557.755,349.104 C559.651,347.422 561.296,345.499 562.731,343.426 L571.846,343.426 C572.57,343.426 573.262,343.132 573.765,342.613 C584.794,331.217 587.221,313.563 587.318,312.817 C587.419,312.056 587.185,311.287 586.679,310.71" fill="#FFFFFF"/>
      </g>
    </g>
  </g>
</svg>
